<?xml version="1.0" encoding="UTF-8" standalone="no"?>
<!-- Created with Inkscape (http://www.inkscape.org/) -->

<svg
   width="208.57233mm"
   height="206.52611mm"
   viewBox="0 0 208.57233 206.52611"
   version="1.1"
   id="svg5"
   xml:space="preserve"
   xmlns="http://www.w3.org/2000/svg"
   xmlns:svg="http://www.w3.org/2000/svg"><defs
     id="defs2"><filter
       style="color-interpolation-filters:sRGB"
       id="filter55708"
       x="-0.10265856"
       y="-0.071745983"
       width="1.2053171"
       height="1.143492"><feGaussianBlur
         stdDeviation="0.12047735"
         id="feGaussianBlur55710" /></filter><filter
       style="color-interpolation-filters:sRGB"
       id="filter55712"
       x="-0.10899286"
       y="-0.069776499"
       width="1.2179857"
       height="1.139553"><feGaussianBlur
         stdDeviation="0.12047735"
         id="feGaussianBlur55714" /></filter><filter
       style="color-interpolation-filters:sRGB"
       id="filter64157"
       x="-0.069885494"
       y="-0.064800568"
       width="1.1395632"
       height="1.1311931"><feGaussianBlur
         stdDeviation="0.10536921"
         id="feGaussianBlur64159" /></filter></defs><g
     id="layer1"
     transform="translate(-1.1596832,-42.719498)"><ellipse
       style="opacity:1;fill:#4050df;fill-opacity:1;stroke:none;stroke-width:0.921153;stroke-linecap:round;stroke-linejoin:round;stroke-dasharray:none;stroke-opacity:1"
       id="path66992"
       cx="105.44585"
       cy="145.80463"
       rx="104.28616"
       ry="103.08513" /><g
       id="g91799"><path
         style="opacity:0.545821;fill:none;fill-opacity:1;stroke:#f9ffff;stroke-width:0.265;stroke-linecap:round;stroke-linejoin:round;stroke-dasharray:none;stroke-opacity:1"
         d="m 65.116754,58.810844 c -1.523571,0.70666 -2.823035,0.306563 -3.206305,-0.912233 -0.383268,-1.218797 -0.0016,-2.288849 0.980725,-2.56623 0.982192,-0.277384 2.522387,0.03016 2.687656,0.777943 0.165267,0.747784 0.246457,1.493645 0.246457,1.493645"
         id="path86771" /><path
         style="opacity:0.545821;fill:none;fill-opacity:1;stroke:#f9ffff;stroke-width:0.265;stroke-linecap:round;stroke-linejoin:round;stroke-dasharray:none;stroke-opacity:1"
         d="m 82.127462,66.836707 c 0,0 -0.483515,-0.401828 -1.487988,0.0096 -1.004469,0.411366 -3.143712,1.638257 -3.143712,1.638257 0,0 2.582939,2.062827 3.470714,2.113206 0.887775,0.05038 1.83906,-0.03327 2.079331,-0.948685 0.240271,-0.915418 0.542258,-2.116693 0.542258,-2.116693 l 4.707668,-0.682969 c 0,0 0.736478,-1.649073 1.513218,-2.246757 0.77674,-0.597685 2.602968,-1.13983 2.602968,-1.13983"
         id="path86773" /><path
         style="opacity:0.545821;fill:none;fill-opacity:1;stroke:#f9ffff;stroke-width:0.265;stroke-linecap:round;stroke-linejoin:round;stroke-dasharray:none;stroke-opacity:1"
         d="m 83.926682,72.602706 c 0,0 3.895537,-3.314269 4.159861,-3.99456 0.264321,-0.680295 0.941416,-1.225447 0.941416,-1.225447 l 1.116423,-0.06181 1.319527,-0.927076"
         id="path86775" /><path
         style="opacity:0.545821;fill:none;fill-opacity:1;stroke:#f9ffff;stroke-width:0.265;stroke-linecap:round;stroke-linejoin:round;stroke-dasharray:none;stroke-opacity:1"
         d="m 90.157534,68.083842 c 0,0 0.718066,1.405477 1.469822,1.380879 0.751755,-0.02461 1.496647,-0.0047 1.852964,-0.620784 0.356317,-0.616069 0.19014,-1.574644 -0.400632,-1.66497 -0.590775,-0.09032 -1.330629,0.597117 -1.330629,0.597117"
         id="path86777" /><path
         style="opacity:0.545821;fill:none;fill-opacity:1;stroke:#f9ffff;stroke-width:0.265;stroke-linecap:round;stroke-linejoin:round;stroke-dasharray:none;stroke-opacity:1"
         d="m 94.944707,67.765818 c 0,0 0.725376,-0.695611 1.716214,-1.420659 0.990841,-0.725051 2.212552,-1.066218 2.212552,-1.066218"
         id="path86779" /><path
         style="opacity:0.545821;fill:none;fill-opacity:1;stroke:#f9ffff;stroke-width:0.265;stroke-linecap:round;stroke-linejoin:round;stroke-dasharray:none;stroke-opacity:1"
         d="m 94.285161,63.031721 1.116748,0.216696"
         id="path86781" /><path
         style="opacity:0.545821;fill:none;fill-opacity:1;stroke:#f9ffff;stroke-width:0.265;stroke-linecap:round;stroke-linejoin:round;stroke-dasharray:none;stroke-opacity:1"
         d="m 96.344196,64.882405 0.641276,-0.01453"
         id="path86783" /><path
         style="opacity:0.545821;fill:none;fill-opacity:1;stroke:#f9ffff;stroke-width:0.265;stroke-linecap:round;stroke-linejoin:round;stroke-dasharray:none;stroke-opacity:1"
         d="m 98.757874,64.128718 c 0,0 2.883416,-0.642231 4.285736,-1.88536 1.40231,-1.243129 1.59311,-2.381626 3.68865,-3.123697 2.09553,-0.742069 9.05,-0.126336 9.05,-0.126336"
         id="path86785" /><path
         style="opacity:0.545821;fill:none;fill-opacity:1;stroke:#f9ffff;stroke-width:0.265;stroke-linecap:round;stroke-linejoin:round;stroke-dasharray:none;stroke-opacity:1"
         d="m 114.85886,56.700358 0.98046,0.39206"
         id="path86787" /><path
         style="opacity:0.545821;fill:none;fill-opacity:1;stroke:#f9ffff;stroke-width:0.265;stroke-linecap:round;stroke-linejoin:round;stroke-dasharray:none;stroke-opacity:1"
         d="m 118.07831,59.637101 c 0,0 -1.50974,0.985113 -2.17644,1.668423 -0.6667,0.683313 -0.46771,1.757069 0.004,2.059313 0.4719,0.302247 2.16836,1.342014 2.16836,1.342014"
         id="path86789" /><path
         style="opacity:0.545821;fill:none;fill-opacity:1;stroke:#f9ffff;stroke-width:0.265;stroke-linecap:round;stroke-linejoin:round;stroke-dasharray:none;stroke-opacity:1"
         d="m 121.52419,56.283007 c 0,0 -1.9002,0.906632 -2.19947,1.585069 -0.29927,0.678436 0.35452,1.922404 1.04969,2.271966 0.69517,0.349562 1.72305,0.578895 1.79726,1.468649 0.0742,0.889754 -1.47588,2.836313 -1.47588,2.836313"
         id="path86791" /><path
         style="opacity:0.545821;fill:none;fill-opacity:1;stroke:#f9ffff;stroke-width:0.265;stroke-linecap:round;stroke-linejoin:round;stroke-dasharray:none;stroke-opacity:1"
         d="m 120.33343,49.821303 1.89232,0.220885 0.0428,1.841349 -1.91593,-0.03858 -0.01,-0.981178"
         id="path86793" /><path
         style="opacity:0.545821;fill:none;fill-opacity:1;stroke:#f9ffff;stroke-width:0.265;stroke-linecap:round;stroke-linejoin:round;stroke-dasharray:none;stroke-opacity:1"
         d="m 113.23198,65.349238 0.0194,1.11709 -0.36392,0.135337"
         id="path86795" /><path
         style="opacity:0.545821;fill:none;fill-opacity:1;stroke:#f9ffff;stroke-width:0.265;stroke-linecap:round;stroke-linejoin:round;stroke-dasharray:none;stroke-opacity:1"
         d="m 113.44778,68.986042 -0.19917,3.33194"
         id="path86797" /><path
         style="opacity:0.545821;fill:none;fill-opacity:1;stroke:#f9ffff;stroke-width:0.265;stroke-linecap:round;stroke-linejoin:round;stroke-dasharray:none;stroke-opacity:1"
         d="m 116.71295,67.260996 c 0,0 -1.34878,1.191617 -1.28555,1.850281 0.0632,0.658667 0.54138,1.341268 1.32643,1.497277 0.78505,0.156007 2.13467,1.038728 2.40171,0.560734 0.26704,-0.477991 0.13932,-2.52736 0.13932,-2.52736"
         id="path86799" /><path
         style="opacity:0.545821;fill:none;fill-opacity:1;stroke:#f9ffff;stroke-width:0.265;stroke-linecap:round;stroke-linejoin:round;stroke-dasharray:none;stroke-opacity:1"
         d="m 124.59948,62.078324 7.41763,0.167828"
         id="path86801" /><path
         style="opacity:0.545821;fill:none;fill-opacity:1;stroke:#f9ffff;stroke-width:0.265;stroke-linecap:round;stroke-linejoin:round;stroke-dasharray:none;stroke-opacity:1"
         d="m 123.76159,60.385385 1.59698,-0.166134"
         id="path86803" /><path
         style="opacity:0.545821;fill:none;fill-opacity:1;stroke:#f9ffff;stroke-width:0.265;stroke-linecap:round;stroke-linejoin:round;stroke-dasharray:none;stroke-opacity:1"
         d="m 126.34335,58.527402 1.6109,-0.152538"
         id="path86805" /><path
         style="opacity:0.545821;fill:none;fill-opacity:1;stroke:#f9ffff;stroke-width:0.265;stroke-linecap:round;stroke-linejoin:round;stroke-dasharray:none;stroke-opacity:1"
         d="m 108.15635,75.86796 11.87707,-0.309208"
         id="path86807" /><path
         style="opacity:0.545821;fill:none;fill-opacity:1;stroke:#f9ffff;stroke-width:0.265;stroke-linecap:round;stroke-linejoin:round;stroke-dasharray:none;stroke-opacity:1"
         d="m 151.93517,72.010232 c 0,0 0.63726,-0.518395 0.85068,-0.103428 0.21341,0.414967 0.0325,0.660744 -0.39346,0.660744 -0.42599,0 -0.74339,0 -0.74339,0"
         id="path86809" /><path
         style="opacity:0.545821;fill:none;fill-opacity:1;stroke:#f9ffff;stroke-width:0.265;stroke-linecap:round;stroke-linejoin:round;stroke-dasharray:none;stroke-opacity:1"
         d="m 117.29794,87.138911 5.95096,-0.490715"
         id="path86811" /><path
         style="opacity:0.545821;fill:none;fill-opacity:1;stroke:#f9ffff;stroke-width:0.265;stroke-linecap:round;stroke-linejoin:round;stroke-dasharray:none;stroke-opacity:1"
         d="m 121.09408,90.100953 c 0,0 -0.11773,-1.472255 0.30379,-1.828072 0.42152,-0.35582 1.86119,-0.726414 2.30897,-0.457674 0.44778,0.268738 0.49513,0.984541 0.49513,0.984541"
         id="path86813" /><path
         style="opacity:0.545821;fill:none;fill-opacity:1;stroke:#f9ffff;stroke-width:0.265;stroke-linecap:round;stroke-linejoin:round;stroke-dasharray:none;stroke-opacity:1"
         d="m 121.67641,90.152605 c 0,0 1.45393,-0.07043 2.29273,0.148683 0.8388,0.219112 -1.57914,2.66923 -1.57914,2.66923"
         id="path86815" /><path
         style="opacity:0.545821;fill:none;fill-opacity:1;stroke:#f9ffff;stroke-width:0.265;stroke-linecap:round;stroke-linejoin:round;stroke-dasharray:none;stroke-opacity:1"
         d="m 129.54451,88.608944 c 0,0 -0.41,3.742087 0.0661,4.040801 0.47609,0.298715 2.08122,-0.101862 2.55105,-0.595915 0.46983,-0.494054 2.23344,-2.763647 2.23344,-2.763647"
         id="path86817" /><path
         style="opacity:0.545821;fill:none;fill-opacity:1;stroke:#f9ffff;stroke-width:0.265;stroke-linecap:round;stroke-linejoin:round;stroke-dasharray:none;stroke-opacity:1"
         d="m 145.35283,77.350693 10.60773,8.387151"
         id="path86819" /><path
         style="opacity:0.545821;fill:none;fill-opacity:1;stroke:#f9ffff;stroke-width:0.265;stroke-linecap:round;stroke-linejoin:round;stroke-dasharray:none;stroke-opacity:1"
         d="m 152.18945,83.865034 -8.7265,-0.0146"
         id="path86821" /><path
         style="opacity:0.545821;fill:none;fill-opacity:1;stroke:#f9ffff;stroke-width:0.265;stroke-linecap:round;stroke-linejoin:round;stroke-dasharray:none;stroke-opacity:1"
         d="m 141.80484,83.850421 4.7779,4.957498"
         id="path86823" /><path
         style="opacity:0.545821;fill:none;fill-opacity:1;stroke:#f9ffff;stroke-width:0.265;stroke-linecap:round;stroke-linejoin:round;stroke-dasharray:none;stroke-opacity:1"
         d="m 146.01552,91.377393 -9.79566,7.63048 c 0,0 -0.74244,1.024667 -1.55192,1.001737 -0.80949,-0.02291 -3.45443,-2.265564 -3.45443,-2.265564"
         id="path86825" /><path
         style="opacity:0.545821;fill:none;fill-opacity:1;stroke:#f9ffff;stroke-width:0.265;stroke-linecap:round;stroke-linejoin:round;stroke-dasharray:none;stroke-opacity:1"
         d="m 125.46649,97.208677 2.0587,0.554961"
         id="path86827" /><path
         style="opacity:0.545821;fill:none;fill-opacity:1;stroke:#f9ffff;stroke-width:0.265;stroke-linecap:round;stroke-linejoin:round;stroke-dasharray:none;stroke-opacity:1"
         d="M 134.43421,103.78144 147.73042,93.605584"
         id="path86829" /><path
         style="opacity:0.545821;fill:none;fill-opacity:1;stroke:#f9ffff;stroke-width:0.265;stroke-linecap:round;stroke-linejoin:round;stroke-dasharray:none;stroke-opacity:1"
         d="m 147.72857,91.260336 c 0,0 0.6518,0.757859 1.18411,0.757859 0.53231,0 1.40751,0.03689 1.79484,-0.673851 0.38734,-0.71074 0.14472,-1.849982 -0.88796,-1.9953 -1.03268,-0.145317 -1.95378,0.472096 -1.95378,0.472096 l -0.20015,0.652574"
         id="path86831" /><path
         style="opacity:0.545821;fill:none;fill-opacity:1;stroke:#f9ffff;stroke-width:0.265;stroke-linecap:round;stroke-linejoin:round;stroke-dasharray:none;stroke-opacity:1"
         d="m 151.78027,89.195623 c 0,0 0.65245,2.152976 0.65245,3.187536 0,1.034561 -0.0298,3.62462 0.32287,4.299135 0.35268,0.674518 0.77378,2.097704 0.77378,2.097704"
         id="path86833" /><path
         style="opacity:0.545821;fill:none;fill-opacity:1;stroke:#f9ffff;stroke-width:0.265;stroke-linecap:round;stroke-linejoin:round;stroke-dasharray:none;stroke-opacity:1"
         d="m 156.40683,85.958957 0.16486,16.696683"
         id="path86835" /><path
         style="opacity:0.545821;fill:none;fill-opacity:1;stroke:#f9ffff;stroke-width:0.265;stroke-linecap:round;stroke-linejoin:round;stroke-dasharray:none;stroke-opacity:1"
         d="m 152.0092,101.33534 0.0745,0.89059 1.96676,0.20791 c 0,0 -0.20668,-1.15763 0.40871,-1.33144 0.6154,-0.17381 1.02078,1.10233 1.02078,1.10233"
         id="path86837" /><path
         style="opacity:0.545821;fill:none;fill-opacity:1;stroke:#f9ffff;stroke-width:0.265;stroke-linecap:round;stroke-linejoin:round;stroke-dasharray:none;stroke-opacity:1"
         d="m 142.66156,100.45275 5.81801,0.20379 -0.0477,2.55156 -2.9044,-0.21201"
         id="path86839" /><path
         style="opacity:0.545821;fill:none;fill-opacity:1;stroke:#f9ffff;stroke-width:0.265;stroke-linecap:round;stroke-linejoin:round;stroke-dasharray:none;stroke-opacity:1"
         d="m 156.08542,82.789939 c 0,0 0.82164,0.889802 0.82164,1.373534 0,0.48373 0,0.862825 0,0.862825"
         id="path86841" /><path
         style="opacity:0.545821;fill:none;fill-opacity:1;stroke:#f9ffff;stroke-width:0.265;stroke-linecap:round;stroke-linejoin:round;stroke-dasharray:none;stroke-opacity:1"
         d="m 157.37866,84.52705 9.61875,-0.419552"
         id="path86843" /><path
         style="opacity:0.545821;fill:none;fill-opacity:1;stroke:#f9ffff;stroke-width:0.265;stroke-linecap:round;stroke-linejoin:round;stroke-dasharray:none;stroke-opacity:1"
         d="m 153.89851,90.45427 1.35155,0.746183 0.13154,0.199247"
         id="path86845" /><path
         style="opacity:0.545821;fill:none;fill-opacity:1;stroke:#f9ffff;stroke-width:0.265;stroke-linecap:round;stroke-linejoin:round;stroke-dasharray:none;stroke-opacity:1"
         d="m 157.20644,91.834389 3.04116,1.382335"
         id="path86847" /><path
         style="opacity:0.545821;fill:none;fill-opacity:1;stroke:#f9ffff;stroke-width:0.265;stroke-linecap:round;stroke-linejoin:round;stroke-dasharray:none;stroke-opacity:1"
         d="m 147.49192,105.86334 -0.90459,12.60429"
         id="path86849" /><path
         style="opacity:0.545821;fill:none;fill-opacity:1;stroke:#f9ffff;stroke-width:0.265;stroke-linecap:round;stroke-linejoin:round;stroke-dasharray:none;stroke-opacity:1"
         d="m 143.61229,113.28406 2.52161,-0.17468"
         id="path86851" /><path
         style="opacity:0.545821;fill:none;fill-opacity:1;stroke:#f9ffff;stroke-width:0.265;stroke-linecap:round;stroke-linejoin:round;stroke-dasharray:none;stroke-opacity:1"
         d="m 144.5456,109.98131 c 0,0 -0.40699,-0.68154 -0.19366,-1.00333 0.21333,-0.3218 1.01254,-0.3218 1.01254,-0.3218 l 0.0287,1.35191"
         id="path86853" /><path
         style="opacity:0.545821;fill:none;fill-opacity:1;stroke:#f9ffff;stroke-width:0.265;stroke-linecap:round;stroke-linejoin:round;stroke-dasharray:none;stroke-opacity:1"
         d="m 172.58168,93.552789 0.10309,9.543551 c 0,0 0.11642,2.29021 1.4618,2.30963 1.34539,0.0194 8.24076,0.5298 8.24076,0.5298"
         id="path86855" /><path
         style="opacity:0.545821;fill:none;fill-opacity:1;stroke:#f9ffff;stroke-width:0.265;stroke-linecap:round;stroke-linejoin:round;stroke-dasharray:none;stroke-opacity:1"
         d="m 180.96465,102.96814 -5.04853,-0.44986 -0.74787,-7.67249"
         id="path86857" /><path
         style="opacity:0.545821;fill:none;fill-opacity:1;stroke:#f9ffff;stroke-width:0.265;stroke-linecap:round;stroke-linejoin:round;stroke-dasharray:none;stroke-opacity:1"
         d="m 169.42499,119.54683 c 0,0 -0.37265,-6.70556 -0.98638,-8.74379 -0.61374,-2.03823 -0.81452,-2.37044 -0.81452,-2.37044"
         id="path86859" /><path
         style="opacity:0.545821;fill:none;fill-opacity:1;stroke:#f9ffff;stroke-width:0.265;stroke-linecap:round;stroke-linejoin:round;stroke-dasharray:none;stroke-opacity:1"
         d="m 189.4347,134.58422 -3.84492,0.18265 0.41325,2.6353 3.77359,0.0742"
         id="path86861" /><path
         style="opacity:0.545821;fill:none;fill-opacity:1;stroke:#f9ffff;stroke-width:0.265;stroke-linecap:round;stroke-linejoin:round;stroke-dasharray:none;stroke-opacity:1"
         d="m 190.0967,141.07194 -2.87228,-0.0492 0.10878,0.31724"
         id="path86863" /><path
         style="opacity:0.545821;fill:none;fill-opacity:1;stroke:#f9ffff;stroke-width:0.265;stroke-linecap:round;stroke-linejoin:round;stroke-dasharray:none;stroke-opacity:1"
         d="m 190.26501,143.57964 -3.11256,0.26866"
         id="path86865" /><path
         style="opacity:0.545821;fill:none;fill-opacity:1;stroke:#f9ffff;stroke-width:0.265;stroke-linecap:round;stroke-linejoin:round;stroke-dasharray:none;stroke-opacity:1"
         d="m 190.08869,146.57863 -2.87707,0.10956"
         id="path86867" /><path
         style="opacity:0.545821;fill:none;fill-opacity:1;stroke:#f9ffff;stroke-width:0.265;stroke-linecap:round;stroke-linejoin:round;stroke-dasharray:none;stroke-opacity:1"
         d="m 181.88031,132.9203 c 0,0 -2.25933,0.14633 -3.4186,0.63416 -1.15927,0.48784 -2.87443,1.82087 -2.87443,1.82087"
         id="path86869" /><path
         style="opacity:0.545821;fill:none;fill-opacity:1;stroke:#f9ffff;stroke-width:0.265;stroke-linecap:round;stroke-linejoin:round;stroke-dasharray:none;stroke-opacity:1"
         d="m 178.66099,137.00443 c 0,0 0.83745,1.15419 1.56034,0.90558 0.72289,-0.24862 1.62099,-0.89888 1.48528,-1.90573 -0.13572,-1.00685 -1.43525,-1.42041 -2.28775,-1.09821 -0.8525,0.3222 -1.06337,1.12597 -1.06337,1.12597 z"
         id="path86871" /><path
         style="opacity:0.545821;fill:none;fill-opacity:1;stroke:#f9ffff;stroke-width:0.265;stroke-linecap:round;stroke-linejoin:round;stroke-dasharray:none;stroke-opacity:1"
         d="m 177.54527,136.72261 0.0515,0.65091 -2.34028,0.14715"
         id="path86873" /><path
         style="opacity:0.545821;fill:none;fill-opacity:1;stroke:#f9ffff;stroke-width:0.265;stroke-linecap:round;stroke-linejoin:round;stroke-dasharray:none;stroke-opacity:1"
         d="m 174.56296,136.44944 0.2781,7.94843 -6.07641,3.92852"
         id="path86875" /><path
         style="opacity:0.545821;fill:none;fill-opacity:1;stroke:#f9ffff;stroke-width:0.265;stroke-linecap:round;stroke-linejoin:round;stroke-dasharray:none;stroke-opacity:1"
         d="m 189.71882,154.62841 -4.89914,0.21258 c 0,0 -0.20953,1.55529 0.63085,1.4648 0.84038,-0.0905 3.29429,-0.0905 3.29429,-0.0905 l 0.78065,1.35563 0.45146,0.96777"
         id="path86877" /><path
         style="opacity:0.545821;fill:none;fill-opacity:1;stroke:#f9ffff;stroke-width:0.265;stroke-linecap:round;stroke-linejoin:round;stroke-dasharray:none;stroke-opacity:1"
         d="m 185.07039,159.69449 -18.11828,-0.64217"
         id="path86879" /><path
         style="opacity:0.545821;fill:none;fill-opacity:1;stroke:#f9ffff;stroke-width:0.265;stroke-linecap:round;stroke-linejoin:round;stroke-dasharray:none;stroke-opacity:1"
         d="m 161.66643,164.40591 0.1791,10.56184"
         id="path86881" /><path
         style="opacity:0.545821;fill:none;fill-opacity:1;stroke:#f9ffff;stroke-width:0.265;stroke-linecap:round;stroke-linejoin:round;stroke-dasharray:none;stroke-opacity:1"
         d="m 156.69563,178.10777 c 0,0 7.6139,-2.27293 9.12799,-3.81437 1.51409,-1.54145 9.92412,-11.18941 9.92412,-11.18941 0,0 0.58272,-0.99812 2.58151,-1.04941 1.99879,-0.0513 10.82015,-0.6108 10.82015,-0.6108"
         id="path86883" /><path
         style="opacity:0.545821;fill:none;fill-opacity:1;stroke:#f9ffff;stroke-width:0.265;stroke-linecap:round;stroke-linejoin:round;stroke-dasharray:none;stroke-opacity:1"
         d="m 177.41775,165.32305 10.38321,-0.45044"
         id="path86885" /><path
         style="opacity:0.545821;fill:none;fill-opacity:1;stroke:#f9ffff;stroke-width:0.265;stroke-linecap:round;stroke-linejoin:round;stroke-dasharray:none;stroke-opacity:1"
         d="m 147.54778,191.83886 c 0,0 3.23363,3.73471 4.30891,3.77148 1.07527,0.0368 2.47759,-0.55512 2.53971,-1.1491 0.0621,-0.59398 0.24027,-2.29385 -1.16423,-2.29385 -1.40449,0 -2.63239,0.7983 -3.08018,1.18971 -0.44779,0.3914 -1.47146,2.72089 -1.47146,2.72089"
         id="path86887" /><path
         style="opacity:0.545821;fill:none;fill-opacity:1;stroke:#f9ffff;stroke-width:0.265;stroke-linecap:round;stroke-linejoin:round;stroke-dasharray:none;stroke-opacity:1"
         d="m 142.81251,208.40932 -4.26809,0.18103"
         id="path86889" /><path
         style="opacity:0.545821;fill:none;fill-opacity:1;stroke:#f9ffff;stroke-width:0.265;stroke-linecap:round;stroke-linejoin:round;stroke-dasharray:none;stroke-opacity:1"
         d="m 137.79635,206.94906 c 0,0 -4.28457,4.07891 -5.88525,4.5863 -1.60067,0.50739 -2.03684,0.43426 -2.03684,0.43426"
         id="path86891" /><path
         style="opacity:0.545821;fill:none;fill-opacity:1;stroke:#f9ffff;stroke-width:0.265;stroke-linecap:round;stroke-linejoin:round;stroke-dasharray:none;stroke-opacity:1"
         d="m 134.2348,208.20168 -5.52238,0.68013"
         id="path86893" /><path
         style="opacity:0.545821;fill:none;fill-opacity:1;stroke:#f9ffff;stroke-width:0.265;stroke-linecap:round;stroke-linejoin:round;stroke-dasharray:none;stroke-opacity:1"
         d="m 128.54949,213.34559 -1.98145,2.18111"
         id="path86895" /><path
         style="opacity:0.545821;fill:none;fill-opacity:1;stroke:#f9ffff;stroke-width:0.265;stroke-linecap:round;stroke-linejoin:round;stroke-dasharray:none;stroke-opacity:1"
         d="m 125.66124,216.24713 c 0,0 -1.90303,0.69333 -2.56555,0.35079 -0.66252,-0.34254 -1.75382,-1.31826 -1.75382,-1.31826 l -1.31401,-0.39135"
         id="path86897" /><path
         style="opacity:0.545821;fill:none;fill-opacity:1;stroke:#f9ffff;stroke-width:0.265;stroke-linecap:round;stroke-linejoin:round;stroke-dasharray:none;stroke-opacity:1"
         d="m 123.07498,213.64474 -1.36433,1.14506"
         id="path86899" /><path
         style="opacity:0.545821;fill:none;fill-opacity:1;stroke:#f9ffff;stroke-width:0.265;stroke-linecap:round;stroke-linejoin:round;stroke-dasharray:none;stroke-opacity:1"
         d="m 123.9605,211.18244 c 0,0 -2.35045,0.0852 -2.91817,0.99507 -0.56773,0.90985 -1.52115,2.1928 -1.52115,2.1928 l -3.89721,0.7008"
         id="path86901" /><path
         style="opacity:0.545821;fill:none;fill-opacity:1;stroke:#f9ffff;stroke-width:0.265;stroke-linecap:round;stroke-linejoin:round;stroke-dasharray:none;stroke-opacity:1"
         d="m 119.77683,215.54471 c 0,0 -1.20199,2.11455 -1.84029,2.51458 -0.6383,0.40004 -1.87196,2.07752 -1.87196,2.07752"
         id="path86903" /><path
         style="opacity:0.545821;fill:none;fill-opacity:1;stroke:#f9ffff;stroke-width:0.265;stroke-linecap:round;stroke-linejoin:round;stroke-dasharray:none;stroke-opacity:1"
         d="m 114.39283,216.02048 0.0789,1.06201 c 0,0 0.664,0.31447 -0.37404,0.56348 -1.03803,0.249 -4.76697,-1.78882 -4.76697,-1.78882"
         id="path86905" /><path
         style="opacity:0.545821;fill:none;fill-opacity:1;stroke:#f9ffff;stroke-width:0.265;stroke-linecap:round;stroke-linejoin:round;stroke-dasharray:none;stroke-opacity:1"
         d="m 113.58582,214.27693 c 0,0 -1.18214,0.30837 -2.07595,0.66959 -0.89382,0.36122 -1.38826,0.42743 -1.38826,0.42743"
         id="path86907" /><path
         style="opacity:0.545821;fill:none;fill-opacity:1;stroke:#f9ffff;stroke-width:0.265;stroke-linecap:round;stroke-linejoin:round;stroke-dasharray:none;stroke-opacity:1"
         d="m 117.73401,229.36141 -7.53185,1.02609"
         id="path86909" /><path
         style="opacity:0.545821;fill:none;fill-opacity:1;stroke:#f9ffff;stroke-width:0.265;stroke-linecap:round;stroke-linejoin:round;stroke-dasharray:none;stroke-opacity:1"
         d="m 106.61824,230.82413 -0.93836,-0.8025 -0.2518,-0.91805"
         id="path86911" /><path
         style="opacity:0.545821;fill:none;fill-opacity:1;stroke:#f9ffff;stroke-width:0.265;stroke-linecap:round;stroke-linejoin:round;stroke-dasharray:none;stroke-opacity:1"
         d="m 108.92468,234.20668 c 0,0 -2.95996,0.23148 -4.24848,-0.49041 -1.28852,-0.72188 -2.35479,-3.27556 -2.35479,-3.27556"
         id="path86913" /><path
         style="opacity:0.545821;fill:none;fill-opacity:1;stroke:#f9ffff;stroke-width:0.265;stroke-linecap:round;stroke-linejoin:round;stroke-dasharray:none;stroke-opacity:1"
         d="m 99.654536,234.15622 0.06719,-2.55508"
         id="path86915" /><path
         style="opacity:0.545821;fill:none;fill-opacity:1;stroke:#f9ffff;stroke-width:0.265;stroke-linecap:round;stroke-linejoin:round;stroke-dasharray:none;stroke-opacity:1"
         d="m 103.089,234.95389 c 0,0 -15.357848,-0.52784 -18.957481,-1.40264 -3.599632,-0.87481 -10.326854,-2.10022 -10.326854,-2.10022 l -0.590828,-0.53413"
         id="path86917" /><path
         style="opacity:0.545821;fill:none;fill-opacity:1;stroke:#f9ffff;stroke-width:0.265;stroke-linecap:round;stroke-linejoin:round;stroke-dasharray:none;stroke-opacity:1"
         d="m 77.222952,230.77877 -0.01939,-2.1255"
         id="path86919" /><path
         style="opacity:0.545821;fill:none;fill-opacity:1;stroke:#f9ffff;stroke-width:0.265;stroke-linecap:round;stroke-linejoin:round;stroke-dasharray:none;stroke-opacity:1"
         d="m 102.39764,216.1327 -5.297333,1.98763"
         id="path86921" /><path
         style="opacity:0.545821;fill:none;fill-opacity:1;stroke:#f9ffff;stroke-width:0.265;stroke-linecap:round;stroke-linejoin:round;stroke-dasharray:none;stroke-opacity:1"
         d="m 96.112514,217.16009 -1.610336,-0.99276 h -0.16451"
         id="path86923" /><path
         style="opacity:0.545821;fill:none;fill-opacity:1;stroke:#f9ffff;stroke-width:0.265;stroke-linecap:round;stroke-linejoin:round;stroke-dasharray:none;stroke-opacity:1"
         d="m 92.919618,216.437 c 0,0 -2.610424,0.46288 -3.391086,1.54681 -0.780661,1.08393 -1.140415,1.93251 -1.140415,1.93251 l -4.255037,0.68259"
         id="path86925" /><path
         style="opacity:0.545821;fill:none;fill-opacity:1;stroke:#f9ffff;stroke-width:0.265;stroke-linecap:round;stroke-linejoin:round;stroke-dasharray:none;stroke-opacity:1"
         d="m 83.389607,221.36325 c 0,0 0.504962,1.33816 -0.397537,1.84086 -0.902496,0.50269 -5.264661,-1.65036 -5.264661,-1.65036 0,0 2.35743,-1.69546 2.987601,-1.75508 0.630172,-0.0596 1.263648,-0.0596 1.263648,-0.0596"
         id="path86927" /><path
         style="opacity:0.545821;fill:none;fill-opacity:1;stroke:#f9ffff;stroke-width:0.265;stroke-linecap:round;stroke-linejoin:round;stroke-dasharray:none;stroke-opacity:1"
         d="m 84.244713,225.7175 c 0,0 1.878857,-1.44845 3.008278,-2.95092 1.129422,-1.50247 1.76094,-2.42136 1.76094,-2.42136 l 1.397614,-0.11123 1.915488,-1.05396"
         id="path86929" /><path
         style="opacity:0.545821;fill:none;fill-opacity:1;stroke:#f9ffff;stroke-width:0.265;stroke-linecap:round;stroke-linejoin:round;stroke-dasharray:none;stroke-opacity:1"
         d="m 90.24282,220.67079 c 0,0 0.466699,1.19626 1.217644,1.39302 0.750943,0.19676 1.528461,0.4914 2.128078,0.15568 0.599618,-0.33573 0.311079,-1.18222 0.311079,-1.18222 l -1.048136,-0.63475"
         id="path86931" /><path
         style="opacity:0.545821;fill:none;fill-opacity:1;stroke:#f9ffff;stroke-width:0.265;stroke-linecap:round;stroke-linejoin:round;stroke-dasharray:none;stroke-opacity:1"
         d="m 94.945887,221.27518 2.9557,-2.51298"
         id="path86933" /><path
         style="opacity:0.545821;fill:none;fill-opacity:1;stroke:#f9ffff;stroke-width:0.265;stroke-linecap:round;stroke-linejoin:round;stroke-dasharray:none;stroke-opacity:1"
         d="m 92.061333,225.85632 4.778171,-0.29627"
         id="path86935" /><path
         style="opacity:0.545821;fill:none;fill-opacity:1;stroke:#f9ffff;stroke-width:0.265;stroke-linecap:round;stroke-linejoin:round;stroke-dasharray:none;stroke-opacity:1"
         d="m 72.927373,228.80892 -0.799753,0.68235"
         id="path86937" /><path
         style="opacity:0.545821;fill:none;fill-opacity:1;stroke:#f9ffff;stroke-width:0.265;stroke-linecap:round;stroke-linejoin:round;stroke-dasharray:none;stroke-opacity:1"
         d="m 69.598563,228.05543 -0.759907,0.40977"
         id="path86939" /><path
         style="opacity:0.545821;fill:none;fill-opacity:1;stroke:#f9ffff;stroke-width:0.265;stroke-linecap:round;stroke-linejoin:round;stroke-dasharray:none;stroke-opacity:1"
         d="m 67.312365,226.74335 -0.928011,0.74847"
         id="path86941" /><path
         style="opacity:0.545821;fill:none;fill-opacity:1;stroke:#f9ffff;stroke-width:0.265;stroke-linecap:round;stroke-linejoin:round;stroke-dasharray:none;stroke-opacity:1"
         d="m 65.076612,226.57914 -7.808865,-4.15786"
         id="path86943" /><path
         style="opacity:0.545821;fill:none;fill-opacity:1;stroke:#f9ffff;stroke-width:0.265;stroke-linecap:round;stroke-linejoin:round;stroke-dasharray:none;stroke-opacity:1"
         d="m 64.775545,225.44481 0.6688,-0.40228"
         id="path86945" /><path
         style="opacity:0.545821;fill:none;fill-opacity:1;stroke:#f9ffff;stroke-width:0.265;stroke-linecap:round;stroke-linejoin:round;stroke-dasharray:none;stroke-opacity:1"
         d="m 62.614097,223.8597 2.757829,-2.51385"
         id="path86947" /><path
         style="opacity:0.545821;fill:none;fill-opacity:1;stroke:#f9ffff;stroke-width:0.265;stroke-linecap:round;stroke-linejoin:round;stroke-dasharray:none;stroke-opacity:1"
         d="M 60.179788,221.67336 62.525682,220.585"
         id="path86949" /><path
         style="opacity:0.545821;fill:none;fill-opacity:1;stroke:#f9ffff;stroke-width:0.265;stroke-linecap:round;stroke-linejoin:round;stroke-dasharray:none;stroke-opacity:1"
         d="m 62.849632,218.19941 c 0,0 -5.130294,-0.28198 -6.156343,-1.5591 -1.026049,-1.27711 -3.892267,-3.34298 -3.892267,-3.34298 l -1.498132,-2.60308"
         id="path86951" /><path
         style="opacity:0.545821;fill:none;fill-opacity:1;stroke:#f9ffff;stroke-width:0.265;stroke-linecap:round;stroke-linejoin:round;stroke-dasharray:none;stroke-opacity:1"
         d="m 50.203912,213.04439 1.220956,0.10009"
         id="path86953" /><path
         style="opacity:0.545821;fill:none;fill-opacity:1;stroke:#f9ffff;stroke-width:0.265;stroke-linecap:round;stroke-linejoin:round;stroke-dasharray:none;stroke-opacity:1"
         d="m 63.243263,210.45425 c 0.332822,0.26131 0.354955,0.29347 0.354955,0.29347"
         id="path86955" /><path
         style="opacity:0.545821;fill:none;fill-opacity:1;stroke:#f9ffff;stroke-width:0.265;stroke-linecap:round;stroke-linejoin:round;stroke-dasharray:none;stroke-opacity:1"
         d="m 63.750067,217.94462 c 0.396145,0.11847 0.396145,0.11847 0.396145,0.11847"
         id="path86957" /><path
         style="opacity:0.545821;fill:none;fill-opacity:1;stroke:#f9ffff;stroke-width:0.265;stroke-linecap:round;stroke-linejoin:round;stroke-dasharray:none;stroke-opacity:1"
         d="m 54.955804,219.61284 1.524924,-1.00902"
         id="path86959" /><path
         style="opacity:0.545821;fill:none;fill-opacity:1;stroke:#f9ffff;stroke-width:0.265;stroke-linecap:round;stroke-linejoin:round;stroke-dasharray:none;stroke-opacity:1"
         d="m 53.424571,219.92548 1.736323,1.25733"
         id="path86961" /><path
         style="opacity:0.545821;fill:none;fill-opacity:1;stroke:#f9ffff;stroke-width:0.265;stroke-linecap:round;stroke-linejoin:round;stroke-dasharray:none;stroke-opacity:1"
         d="m 53.317893,215.92638 -0.78628,2.34133 -7.259529,-5.74051"
         id="path86963" /><path
         style="opacity:0.545821;fill:none;fill-opacity:1;stroke:#f9ffff;stroke-width:0.265;stroke-linecap:round;stroke-linejoin:round;stroke-dasharray:none;stroke-opacity:1"
         d="m 52.248162,220.07252 c 0,0 -3.557704,-2.03671 -5.924103,-4.32345 -2.366399,-2.28674 -7.609837,-7.09189 -7.609837,-7.09189"
         id="path86965" /><path
         style="opacity:0.545821;fill:none;fill-opacity:1;stroke:#f9ffff;stroke-width:0.265;stroke-linecap:round;stroke-linejoin:round;stroke-dasharray:none;stroke-opacity:1"
         d="m 37.458861,206.67246 -1.957522,-1.69631"
         id="path86967" /><path
         style="opacity:0.545821;fill:none;fill-opacity:1;stroke:#f9ffff;stroke-width:0.265;stroke-linecap:round;stroke-linejoin:round;stroke-dasharray:none;stroke-opacity:1"
         d="m 48.259819,210.73093 c 0,0 -3.601233,-2.83856 -3.645519,-3.53846 -0.04429,-0.6999 10.008267,-9.40829 10.008267,-9.40829"
         id="path86969" /><path
         style="opacity:0.545821;fill:none;fill-opacity:1;stroke:#f9ffff;stroke-width:0.265;stroke-linecap:round;stroke-linejoin:round;stroke-dasharray:none;stroke-opacity:1"
         d="m 58.197596,208.60788 -7.699873,-0.47316 c 0,0 -1.855705,-0.0909 -1.389372,-1.09013 0.466337,-0.9992 5.919888,-6.12202 5.919888,-6.12202"
         id="path86971" /><path
         style="opacity:0.545821;fill:none;fill-opacity:1;stroke:#f9ffff;stroke-width:0.265;stroke-linecap:round;stroke-linejoin:round;stroke-dasharray:none;stroke-opacity:1"
         d="m 37.583861,202.89459 11.526898,-8.50981"
         id="path86973" /><path
         style="opacity:0.545821;fill:none;fill-opacity:1;stroke:#f9ffff;stroke-width:0.265;stroke-linecap:round;stroke-linejoin:round;stroke-dasharray:none;stroke-opacity:1"
         d="m 25.95008,187.4566 4.144088,-2.96896"
         id="path86975" /><path
         style="opacity:0.545821;fill:none;fill-opacity:1;stroke:#f9ffff;stroke-width:0.265;stroke-linecap:round;stroke-linejoin:round;stroke-dasharray:none;stroke-opacity:1"
         d="m 28.781412,191.42246 2.169176,-1.54444"
         id="path86977" /><path
         style="opacity:0.545821;fill:none;fill-opacity:1;stroke:#f9ffff;stroke-width:0.265;stroke-linecap:round;stroke-linejoin:round;stroke-dasharray:none;stroke-opacity:1"
         d="m 15.660078,187.53231 -1.129446,-0.57191 -1.128016,1.00752 c 0,0 0.725673,3.33617 1.216964,3.81211 0.49129,0.47593 1.250832,1.57336 1.250832,1.57336 l 4.272068,-4.17099 1.740671,-1.09342"
         id="path86979" /><path
         style="opacity:0.545821;fill:none;fill-opacity:1;stroke:#f9ffff;stroke-width:0.265;stroke-linecap:round;stroke-linejoin:round;stroke-dasharray:none;stroke-opacity:1"
         d="m 17.333271,195.07594 3.915194,-2.93388"
         id="path86981" /><path
         style="opacity:0.545821;fill:none;fill-opacity:1;stroke:#f9ffff;stroke-width:0.265;stroke-linecap:round;stroke-linejoin:round;stroke-dasharray:none;stroke-opacity:1"
         d="m 19.735695,198.50519 4.337653,-1.41409"
         id="path86983" /><path
         style="opacity:0.545821;fill:none;fill-opacity:1;stroke:#f9ffff;stroke-width:0.265;stroke-linecap:round;stroke-linejoin:round;stroke-dasharray:none;stroke-opacity:1"
         d="m 23.126244,203.77601 1.650329,-1.485"
         id="path86985" /><path
         style="opacity:0.545821;fill:none;fill-opacity:1;stroke:#f9ffff;stroke-width:0.265;stroke-linecap:round;stroke-linejoin:round;stroke-dasharray:none;stroke-opacity:1"
         d="m 45.199998,143.06066 c 0,0 -1.953972,-2.05237 -1.355434,-3.19686 0.598535,-1.14448 3.587332,-1.79691 3.587332,-1.79691"
         id="path86987" /><path
         style="opacity:0.545821;fill:none;fill-opacity:1;stroke:#f9ffff;stroke-width:0.265;stroke-linecap:round;stroke-linejoin:round;stroke-dasharray:none;stroke-opacity:1"
         d="m 39.495039,142.28486 0.09804,-5.34264"
         id="path86989" /><path
         style="opacity:0.545821;fill:none;fill-opacity:1;stroke:#f9ffff;stroke-width:0.265;stroke-linecap:round;stroke-linejoin:round;stroke-dasharray:none;stroke-opacity:1"
         d="m 30.003414,144.94727 -0.155173,-22.94444 c 0,0 -0.459994,0.0505 0.654216,-0.28282 1.114208,-0.3333 6.542342,-0.46194 6.542342,-0.46194"
         id="path86991" /><path
         style="opacity:0.545821;fill:none;fill-opacity:1;stroke:#f9ffff;stroke-width:0.265;stroke-linecap:round;stroke-linejoin:round;stroke-dasharray:none;stroke-opacity:1"
         d="m 19.110791,140.40308 c 1.405975,0.37797 1.405975,0.37797 1.405975,0.37797"
         id="path86993" /><path
         style="opacity:0.545821;fill:none;fill-opacity:1;stroke:#f9ffff;stroke-width:0.265;stroke-linecap:round;stroke-linejoin:round;stroke-dasharray:none;stroke-opacity:1"
         d="m 19.164409,131.40513 1.165163,0.0162"
         id="path86995" /><path
         style="opacity:0.545821;fill:none;fill-opacity:1;stroke:#f9ffff;stroke-width:0.265;stroke-linecap:round;stroke-linejoin:round;stroke-dasharray:none;stroke-opacity:1"
         d="m 20.408532,128.70519 0.150651,-0.42032"
         id="path86997" /><path
         style="opacity:0.545821;fill:none;fill-opacity:1;stroke:#f9ffff;stroke-width:0.265;stroke-linecap:round;stroke-linejoin:round;stroke-dasharray:none;stroke-opacity:1"
         d="m 27.739784,111.34452 0.728147,-0.35583"
         id="path86999" /><path
         style="opacity:0.545821;fill:none;fill-opacity:1;stroke:#f9ffff;stroke-width:0.265;stroke-linecap:round;stroke-linejoin:round;stroke-dasharray:none;stroke-opacity:1"
         d="m 38.838367,112.88316 c 1.356291,-0.19219 1.356291,-0.19219 1.356291,-0.19219"
         id="path87001" /><path
         style="opacity:0.545821;fill:none;fill-opacity:1;stroke:#f9ffff;stroke-width:0.265;stroke-linecap:round;stroke-linejoin:round;stroke-dasharray:none;stroke-opacity:1"
         d="m 42.284316,113.08484 -0.118192,-1.34496"
         id="path87003" /><path
         style="opacity:0.545821;fill:none;fill-opacity:1;stroke:#f9ffff;stroke-width:0.265;stroke-linecap:round;stroke-linejoin:round;stroke-dasharray:none;stroke-opacity:1"
         d="m 45.667207,110.52923 -0.896411,-6.73398 c 0,0 -0.142438,-0.30857 0.545886,-0.40327 0.688324,-0.0947 4.062145,-0.23876 4.062145,-0.23876 0,0 -0.444405,-1.76147 -0.206351,-2.22598 0.238051,-0.46451 7.141818,-5.29904 8.104156,-5.677397 0.962339,-0.378357 3.528078,-1.758577 3.528078,-1.758577"
         id="path87005" /><path
         style="opacity:0.545821;fill:none;fill-opacity:1;stroke:#f9ffff;stroke-width:0.265;stroke-linecap:round;stroke-linejoin:round;stroke-dasharray:none;stroke-opacity:1"
         d="m 55.938673,94.257793 -0.93186,-1.442442 c 0,0 0.62955,-1.664407 1.50753,-1.730561 0.87798,-0.06615 2.450753,-0.542205 2.450753,0.581552 0,1.123757 -0.564927,1.931498 -0.564927,1.931498"
         id="path87007" /><path
         style="opacity:0.545821;fill:none;fill-opacity:1;stroke:#f9ffff;stroke-width:0.265;stroke-linecap:round;stroke-linejoin:round;stroke-dasharray:none;stroke-opacity:1"
         d="m 56.66773,89.865384 c 0,0 -1.294696,-0.179001 -1.294696,-1.000395 0,-0.821391 1.408123,-1.976371 2.185903,-1.976371 0.777779,0 2.318906,-0.243832 2.169959,0.902084 -0.148948,1.145915 -1.176878,2.073169 -1.176878,2.073169"
         id="path87009" /><path
         style="opacity:0.545821;fill:none;fill-opacity:1;stroke:#f9ffff;stroke-width:0.265;stroke-linecap:round;stroke-linejoin:round;stroke-dasharray:none;stroke-opacity:1"
         d="m 50.085828,88.973714 c 0,0 0.01648,-2.764382 0.55485,-2.880973 0.538369,-0.116589 14.175078,-0.599681 14.175078,-0.599681"
         id="path87011" /><path
         style="opacity:0.545821;fill:none;fill-opacity:1;stroke:#f9ffff;stroke-width:0.265;stroke-linecap:round;stroke-linejoin:round;stroke-dasharray:none;stroke-opacity:1"
         d="m 40.707455,86.659319 -2.444985,1.367153 c 0,0 -0.08605,-0.619411 0,0.293875 0.08605,0.913289 0.89073,1.876462 2.00176,1.878637 1.111031,0.0021 2.767272,-2.487316 2.767272,-2.487316"
         id="path87013" /><path
         style="opacity:0.545821;fill:none;fill-opacity:1;stroke:#f9ffff;stroke-width:0.265;stroke-linecap:round;stroke-linejoin:round;stroke-dasharray:none;stroke-opacity:1"
         d="m 57.028071,78.904684 c 0,0 1.931292,0.585464 3.042468,0.315793 1.111173,-0.269669 2.539103,-3.239254 2.539103,-3.239254 l 9.608026,-0.321326"
         id="path87015" /><path
         style="opacity:0.545821;fill:none;fill-opacity:1;stroke:#f9ffff;stroke-width:0.265;stroke-linecap:round;stroke-linejoin:round;stroke-dasharray:none;stroke-opacity:1"
         d="m 55.733137,74.117665 c 0,0 1.287119,-1.601317 2.428039,-1.398305 1.140918,0.203012 3.507039,2.604146 3.507039,2.604146"
         id="path87017" /><path
         style="opacity:0.545821;fill:none;fill-opacity:1;stroke:#f9ffff;stroke-width:0.265;stroke-linecap:round;stroke-linejoin:round;stroke-dasharray:none;stroke-opacity:1"
         d="m 56.767108,76.015714 0.216937,1.112708 c 0,0 0.746897,0.190926 1.511906,0.02487 0.765011,-0.166063 -0.244827,-1.410915 -0.244827,-1.410915 z"
         id="path87019" /></g><g
       id="g76623"><g
         id="g67014"><path
           style="fill:#55faef;fill-opacity:1;stroke:none;stroke-width:0.264583px;stroke-linecap:butt;stroke-linejoin:miter;stroke-opacity:1"
           d="m 58.254918,237.76434 0.869468,-1.29494 c 0,0 26.705332,15.63211 58.835314,10.10006 54.45551,-9.37599 74.79504,-61.17789 74.79504,-61.17789 l -7.78169,-3.16739 c 0,0 7.96643,-16.71051 7.78474,-33.89008 -0.18169,-17.17958 -5.68735,-38.86371 -11.52758,-47.85098 -5.84024,-8.987265 -7.95816,-11.54867 -7.95816,-11.54867 l -2.44321,0.95608 -2.07084,-6.220775 -2.81364,-8.136337 3.84469,-10.925984 c 0,0 23.47518,15.810052 33.82357,48.185656 10.34839,32.3756 4.10162,52.639 4.10162,52.639 0,0 -4.47792,22.56771 -18.48421,40.93332 -14.00629,18.36562 -23.24869,24.14999 -36.30163,30.94937 -13.05293,6.79939 -28.41256,11.68954 -51.07866,11.928 -15.805266,0.16628 -35.578408,-7.07052 -38.611998,-8.36375 -3.033591,-1.29323 -4.982824,-3.11469 -4.982824,-3.11469 z"
           id="path66994" /><path
           style="fill:#55faef;fill-opacity:1;stroke:none;stroke-width:0.264583px;stroke-linecap:butt;stroke-linejoin:miter;stroke-opacity:1"
           d="m 119.11326,228.89132 c 0,0 21.627,-6.3187 35.10536,-18.13174 13.47836,-11.81305 20.51258,-23.47283 21.64359,-29.11308 1.131,-5.64024 -0.51777,-11.27929 -0.51777,-11.27929 0,0 1.45815,-2.91475 2.58905,-3.15997 1.1309,-0.24522 2.02717,3.77826 2.21183,8.23418 0.18465,4.45592 -0.11793,7.55506 -2.76462,13.05712 -2.64669,5.50207 -12.88977,17.61883 -15.14218,19.89593 -2.25242,2.27711 -22.29206,16.54836 -25.35599,18.15814 -3.06393,1.60978 -15.5935,5.24313 -16.44773,5.04197 -0.85423,-0.20117 -1.32154,-2.70326 -1.32154,-2.70326 z"
           id="path66996" /></g><g
         id="g67010"><path
           style="fill:#bbfef0;fill-opacity:1;stroke:none;stroke-width:0.264583px;stroke-linecap:butt;stroke-linejoin:miter;stroke-opacity:1"
           d="m 13.394379,157.79775 2.176647,-0.87302 c 0,0 -1.834352,-15.36015 2.266563,-29.14893 2.322548,-7.80926 3.759942,-13.97235 8.0075,-19.87997 4.247558,-5.90762 6.080239,-8.545095 8.376007,-10.292453 1.106096,-1.856735 -0.07876,-3.367008 -1.370098,-3.426908 -0.850725,0 -3.413465,3.596737 -4.525799,5.264255 -1.112338,1.667516 -7.365457,9.983476 -11.201959,20.851006 -4.356279,12.33989 -4.331647,24.40213 -4.241674,28.77436 0.08997,4.37223 0.512813,8.73166 0.512813,8.73166 z"
           id="path66998" /><path
           style="fill:#bbfef0;fill-opacity:1;stroke:none;stroke-width:0.264583px;stroke-linecap:butt;stroke-linejoin:miter;stroke-opacity:1"
           d="m 43.028803,87.081303 c 0,0 1.172816,-1.273956 5.286638,-4.770863 2.421571,-2.058428 7.022634,-5.193594 7.022634,-5.193594 l -0.811116,-2.071164 c 0,0 -4.872085,3.414411 -8.532119,6.509893 -3.660034,3.095479 -3.794468,3.883155 -3.794468,3.883155 z"
           id="path67000" /><path
           style="fill:#bbfef0;fill-opacity:1;stroke:none;stroke-width:0.264583px;stroke-linecap:butt;stroke-linejoin:miter;stroke-opacity:1"
           d="m 37.264056,79.469974 c 0,0 7.963531,-7.486896 12.14985,-9.854154 4.186322,-2.367259 9.665555,-5.512018 9.665555,-5.512018 0,0 2.154396,-3.788123 -2.619941,-1.35356 -4.77434,2.434564 -7.629455,4.081133 -11.088335,6.653256 -2.67636,1.990218 -6.115903,4.290676 -6.886171,5.278829 -0.770268,0.98815 -2.918537,2.708136 -2.918537,2.708136 z"
           id="path67002" /><path
           style="fill:#bbfef0;fill-opacity:1;stroke:none;stroke-width:0.264583px;stroke-linecap:butt;stroke-linejoin:miter;stroke-opacity:1"
           d="m 31.614112,84.115316 c 0,0 -15.073307,16.248594 -20.08963,29.846384 -2.9767366,8.06907 -5.7904065,18.58984 -5.9266166,26.11835 -0.1362104,7.5285 1.3231469,19.13951 1.3231469,19.13951 l 2.2339048,9.63405 -2.4421975,0.31534 c 0,0 -3.9314189,-12.5829 -3.2548933,-28.53623 0.2936734,-6.92519 2.1422881,-18.66733 4.6995056,-25.01349 2.5572171,-6.34616 5.2576181,-12.91682 9.2457701,-18.240129 3.988152,-5.323303 11.356587,-14.055881 12.095333,-14.195264 0.738746,-0.139385 2.115677,0.931479 2.115677,0.931479 z"
           id="path67004" /></g><g
         id="g73410"><path
           style="fill:#bbfef0;fill-opacity:1;stroke:none;stroke-width:0.264583px;stroke-linecap:butt;stroke-linejoin:miter;stroke-opacity:1"
           d="m 125.01063,46.626422 c 0,0 10.30559,2.192904 20.44184,7.156577 10.13625,4.963673 22.95856,12.817816 22.95856,12.817816 l -0.94815,2.15474 c 0,0 -10.45941,-6.941629 -13.63451,-8.718901 -3.17509,-1.77727 -18.30375,-7.963773 -21.69159,-9.005517 -3.38785,-1.041742 -7.64484,-2.429788 -7.64484,-2.429788 z"
           id="path73404" /><path
           style="fill:#bbfef0;fill-opacity:1;stroke:none;stroke-width:0.264583px;stroke-linecap:butt;stroke-linejoin:miter;stroke-opacity:1"
           d="m 166.93849,78.401626 c 0,0 -9.59868,-7.630526 -15.10718,-10.818627 -4.29562,-2.486132 -14.08694,-6.73816 -15.54842,-7.256023 -1.46147,-0.517861 -4.65692,-1.136521 -4.65692,-1.136521 l -0.49997,1.383721 c 0,0 5.13901,1.57167 8.97602,3.656748 3.83701,2.085078 14.70678,7.69453 17.08432,9.738783 2.37755,2.044252 10.64173,8.211005 10.64173,8.211005 z"
           id="path73406" /></g><path
         id="path75134"
         style="fill:#bbfef0;fill-opacity:1;stroke:none;stroke-width:0.264583px;stroke-linecap:butt;stroke-linejoin:miter;stroke-opacity:1"
         d="m 22.820829,188.47893 -1.670182,1.18598 c 0,0 4.701912,8.35826 7.237284,12.09332 2.535374,3.73504 5.272008,6.39384 7.859469,9.633 1.269052,1.58869 11.442786,10.12457 13.430188,11.77241 3.687232,3.05724 15.184236,8.37604 18.130159,9.49451 5.348274,2.03056 21.716504,5.04879 21.716504,5.04879 l 0.09198,-1.54926 c 0,0 -9.865802,-2.19911 -16.083256,-3.69435 -6.72299,-1.61682 -12.505166,-5.10467 -17.798913,-7.78764 C 50.440319,221.99272 39.417191,211.52468 36.266003,208.2431 30.089364,201.8109 22.820829,188.47893 22.820829,188.47893 Z" /></g><g
       id="g66778"><g
         id="g65397"><path
           style="fill:#f9ffff;fill-opacity:1;stroke:#2122b1;stroke-width:1.165;stroke-linecap:butt;stroke-linejoin:miter;stroke-dasharray:none;stroke-opacity:1"
           d="m 56.784946,173.62235 c 0,0 2.042631,3.50809 5.641681,4.78893 3.59905,1.28084 8.523309,3.28984 10.258483,3.74162 1.735175,0.45178 2.387518,1.15653 2.387518,1.15653 0,0 -2.33649,4.77549 -2.666727,9.12685 -0.330235,4.35136 -0.217342,13.59913 -0.217342,13.59913 l 56.010731,0.0447 c 0,0 2.17754,-10.36451 2.75179,-18.14218 0.57426,-7.77766 0.29261,-20.34019 0.29261,-20.34019 0,0 5.41409,-1.22218 6.95297,-4.37429 1.53889,-3.15212 5.17535,-15.29141 5.32252,-16.547 0.14717,-1.25558 -0.27474,-1.7968 -0.27474,-1.7968 0,0 -4.24297,1.10204 -6.87449,0.82045 -2.63152,-0.2816 -8.46984,-3.57658 -8.46984,-3.57658 l -0.80363,-0.38542 -4.08414,9.32175 c 0,0 -2.52425,0.34829 -4.88994,0.48074 -2.36569,0.13245 -15.84957,9.25092 -19.557844,9.9121 -3.708276,0.66118 -19.470111,2.38364 -19.470111,2.38364 0,0 -4.899421,-1.75448 -7.706701,-2.91377 -2.807277,-1.15929 -6.987847,-4.80819 -6.987847,-4.80819 0,0 0.487609,5.9942 0.130966,7.97817 -0.356645,1.98397 -3.81409,8.29956 -5.13788,8.77156 -1.323789,0.47199 -2.608037,0.75825 -2.608037,0.75825 z"
           id="path38994" /><g
           id="g55872"><path
             style="fill:#c4e4fc;fill-opacity:1;stroke:none;stroke-width:0.265;stroke-linecap:butt;stroke-linejoin:miter;stroke-dasharray:none;stroke-opacity:1"
             d="m 123.3074,153.07763 c 0,0 5.42207,-2.42351 6.58808,-2.21406 1.16602,0.20945 4.74834,2.41016 5.50013,2.11577 0.75178,-0.2944 2.06774,-1.13813 2.19762,-1.78797 0.12987,-0.64984 0.47407,-1.63799 0.15738,-2.08049 -0.31669,-0.44249 -2.91434,-1.12439 -3.91015,-1.56063 -0.9958,-0.43624 -2.8205,-2.67624 -2.8205,-2.67624 l -3.56812,-1.7128 -4.39113,8.84019 z"
             id="path44505" /><path
             style="fill:#c4e4fc;fill-opacity:1;stroke:none;stroke-width:0.265;stroke-linecap:butt;stroke-linejoin:miter;stroke-dasharray:none;stroke-opacity:1"
             d="m 123.41304,153.14237 c 0,0 6.27073,5.32544 8.45152,7.0171 2.18079,1.69166 4.93995,3.18889 4.93995,3.18889 0,0 -1.09311,1.12667 -2.68,2.09272 -1.58689,0.96604 -2.56351,0.34592 -2.56351,0.34592 0,0 -6.53151,-8.1369 -7.34294,-9.82746 -0.81143,-1.69056 -0.80502,-2.81717 -0.80502,-2.81717 z"
             id="path44508" /><path
             style="fill:#c4e4fc;fill-opacity:1;stroke:none;stroke-width:0.265;stroke-linecap:butt;stroke-linejoin:miter;stroke-dasharray:none;stroke-opacity:1"
             d="m 57.490769,173.94643 c 0,0 3.528076,0.45111 5.382755,0.77783 1.854682,0.32673 4.279733,2.32301 5.059855,2.89386 0.780121,0.57084 2.630056,0.69067 3.668474,0.56933 1.038421,-0.12134 2.793026,-0.32702 3.751289,-0.1452 0.958262,0.18182 0.782659,1.56423 0.782659,1.56423 l -1.143172,3.37121 -8.954863,-3.28377 -6.127025,-3.01817 -2.792269,-2.88424 z"
             id="path44511" /><path
             style="fill:#c4e4fc;fill-opacity:1;stroke:none;stroke-width:0.265;stroke-linecap:butt;stroke-linejoin:miter;stroke-dasharray:none;stroke-opacity:1"
             d="m 65.491454,157.94588 c 0,0 2.307752,2.55867 5.633789,5.05275 3.326037,2.49408 8.41107,5.4589 8.41107,5.4589 l 5.968206,1.75717 1.737124,-1.73586 -4.439327,-4.0593 -13.575477,-4.35902 z"
             id="path44513" /><path
             style="fill:#c4e4fc;fill-opacity:1;stroke:none;stroke-width:0.265;stroke-linecap:butt;stroke-linejoin:miter;stroke-dasharray:none;stroke-opacity:1"
             d="m 93.765067,168.38058 13.197313,-0.94764 c 0,0 8.86953,-5.93845 11.0768,-7.45839 2.20726,-1.51994 5.70554,-4.33675 5.70554,-4.33675 l -1.21544,-4.23834 -5.88273,0.75239 -7.16743,4.82293 c 0,0 -5.96712,4.19833 -7.9037,4.78229 -1.93659,0.58397 -5.611443,2.39941 -5.611443,2.39941 z"
             id="path44519" /><path
             style="fill:#c4e4fc;fill-opacity:1;stroke:none;stroke-width:0.265;stroke-linecap:butt;stroke-linejoin:miter;stroke-dasharray:none;stroke-opacity:1"
             d="m 83.069482,169.22453 c 0,0 -5.996374,16.78846 -6.76221,23.9801 -0.765837,7.19165 0.528342,12.20731 0.528342,12.20731 l -3.467918,0.0718 c 0,0 -0.02104,-15.28827 0.340695,-17.19827 0.361741,-1.91 6.331196,-16.04185 6.331196,-16.04185 z"
             id="path44522" /><path
             style="fill:#2122b1;fill-opacity:1;stroke:#2122b1;stroke-width:0.565;stroke-linecap:round;stroke-linejoin:round;stroke-dasharray:none;stroke-opacity:1"
             d="m 74.607223,183.01112 c 0,0 1.486353,-4.60931 2.223765,-6.2465 0.73741,-1.63718 3.075575,-4.23058 3.075575,-4.23058 0,0 -0.720109,3.76148 -1.428277,5.3279 -0.708167,1.56641 -3.395786,5.5678 -3.395786,5.5678 z"
             id="path40425" /><path
             style="fill:#2122b1;fill-opacity:1;stroke:#2122b1;stroke-width:0.264583px;stroke-linecap:butt;stroke-linejoin:miter;stroke-opacity:1"
             d="m 65.562553,161.09177 c 0,0 2.466827,2.94724 2.969178,4.7335 0.502349,1.78626 0.933929,11.42889 0.933929,11.42889 0,0 -2.482763,-0.7905 -3.22014,-1.88085 -0.737378,-1.09035 -0.700646,-2.19006 -0.246055,-2.5857 0.454589,-0.39563 1.693331,-0.8133 1.693331,-0.8133 0,0 0.496419,-1.87884 -0.06927,-4.07024 -0.565681,-2.19139 -2.153459,-5.93639 -2.153459,-5.93639 z"
             id="path41946" /><path
             style="fill:#2122b1;fill-opacity:1;stroke:#2122b1;stroke-width:0.265;stroke-linecap:butt;stroke-linejoin:miter;stroke-dasharray:none;stroke-opacity:1"
             d="m 132.81873,166.66515 c 0,0 -5.72858,-6.29766 -6.95637,-8.20909 -1.2278,-1.91142 -2.14498,-3.12919 -2.40603,-5.13982 -0.26105,-2.01062 -0.36113,-2.10925 -0.36113,-2.10925 l -0.51235,0.25086 c 0,0 0.68826,3.89917 0.76545,4.60789 0.0772,0.70873 5.38449,7.71815 5.95721,8.51812 0.57271,0.79997 1.93714,3.31085 1.93714,3.31085 z"
             id="path42777" /><path
             style="fill:#2122b1;fill-opacity:1;stroke:#2122b1;stroke-width:0.265;stroke-linecap:butt;stroke-linejoin:miter;stroke-dasharray:none;stroke-opacity:1"
             d="m 82.074387,163.44587 c 0,0 3.929848,3.7738 4.59428,4.30194 0.664432,0.52814 0.291584,1.03326 2.137161,1.00345 1.845575,-0.0298 6.943074,-0.12177 6.943074,-0.12177 0,0 0.530826,-0.78967 1.167644,-1.95351 0.636817,-1.16383 2.214409,-3.96297 2.214409,-3.96297 0,0 -7.755967,1.25103 -9.643732,1.08138 -1.887765,-0.16964 -7.412836,-0.34852 -7.412836,-0.34852 z"
             id="path44525" /><path
             style="fill:#2122b1;fill-opacity:1;stroke:#2122b1;stroke-width:0.265;stroke-linecap:butt;stroke-linejoin:miter;stroke-dasharray:none;stroke-opacity:1"
             d="m 110.42511,157.07683 c 0,0 0.0117,2.77863 -0.66809,4.1082 -0.67979,1.32956 -5.15657,7.34671 -5.15657,7.34671 l -7.547363,0.31947 c 0,0 5.608253,-2.10365 7.346703,-4.19033 1.73844,-2.08668 3.92229,-2.59112 4.13433,-4.3587 0.21204,-1.76759 0.22797,-1.75557 0.22797,-1.75557 z"
             id="path44527" /><path
             style="fill:none;fill-opacity:1;stroke:#2122b1;stroke-width:1.565;stroke-linecap:butt;stroke-linejoin:miter;stroke-dasharray:none;stroke-opacity:1"
             d="m 88.781889,168.2512 c 0,0 21.298491,-0.72316 22.348561,-0.42295 1.05006,0.30021 2.85452,0.91493 3.82298,3.80155 0.96846,2.88662 2.98365,9.97733 3.12468,11.00858 0.14104,1.03126 0.23622,2.55928 0.23622,2.55928"
             id="path44529" /><path
             style="fill:#2122b1;fill-opacity:1;stroke:#2122b1;stroke-width:1.265;stroke-linecap:butt;stroke-linejoin:miter;stroke-dasharray:none;stroke-opacity:1"
             d="m 130.80204,176.49774 c 0,0 -1.71791,0.45649 -2.27151,0.76879 -0.55359,0.31229 -3.45298,6.23653 -4.02757,6.55368 -0.57459,0.31715 -1.6269,0.52472 -1.6269,0.52472"
             id="path44531" /></g><path
           style="fill:#2122b1;fill-opacity:1;stroke:none;stroke-width:0.264583px;stroke-linecap:butt;stroke-linejoin:miter;stroke-opacity:1"
           d="m 101.39677,181.07902 c 0,0 0.92646,2.90188 0.99785,3.0842 0.0714,0.18232 2.82866,0.60071 4.73788,0.48006 1.90921,-0.12064 6.00147,0.0894 6.71057,-0.37646 0.70909,-0.46587 1.23596,-0.49321 1.23596,-0.49321 0,0 -0.99393,1.26695 -1.57687,1.47022 -0.58294,0.20327 -10.22247,0.54539 -10.64372,0.39817 -0.42125,-0.14722 -1.43813,-1.09755 -1.42898,-1.71721 0.009,-0.61967 -0.0327,-2.84577 -0.0327,-2.84577 z"
           id="path55787" /><g
           id="g65358"><path
             style="fill:#5c59ed;fill-opacity:1;stroke:none;stroke-width:0.264583px;stroke-linecap:butt;stroke-linejoin:miter;stroke-opacity:1"
             d="m 81.290564,181.81972 c 0,0 0.828724,-1.43095 1.242906,-1.13763 0.517866,0.36675 2.185411,4.25977 2.185411,4.25977 0,0 0.476991,0.44815 1.29095,-0.56396 0.813959,-1.01211 1.896503,-2.28071 1.885447,-2.92282 -0.01018,-0.59141 0.09314,-1.63411 -1.093764,-2.1435 -0.546164,-0.2344 -1.710031,-0.28042 -2.041649,0.043 -0.331618,0.32343 -0.247097,1.34611 -0.155498,1.77829 0.0916,0.43218 0.20824,0.68185 0.20824,0.68185 0,0 0.05203,-1.10599 0.568304,-1.28804 0.516276,-0.18205 1.526286,0.0874 1.526286,0.47912 0,0.39172 -0.340815,1.79443 -0.763603,2.14889 -0.422789,0.35446 -0.619226,1.09581 -1.129761,0.57335 -0.510537,-0.52245 -0.956625,-1.69873 -1.144701,-2.57512 -0.188076,-0.8764 -0.204597,-1.42677 -0.63124,-1.7611 -0.426643,-0.33433 -1.075833,0.0645 -1.272463,0.44309 -0.196633,0.37859 -0.674865,1.9848 -0.674865,1.9848 z"
             id="path51084" /><g
             aria-label="B9"
             id="text55701"
             style="font-size:5.64444px;line-height:1.25;font-family:'Noto Sans Adlam Unjoined';-inkscape-font-specification:'Noto Sans Adlam Unjoined';stroke-width:0.264583"
             transform="matrix(-0.02193024,-1.4410593,1.3565448,-0.02329652,-143.65233,318.3773)"><path
               d="m 93.338274,175.06629 q 0.756355,0 1.140177,0.22578 0.389466,0.22013 0.389466,0.77329 0,0.3556 -0.197555,0.59266 -0.197556,0.23142 -0.570089,0.29916 v 0.0282 q 0.254,0.0395 0.4572,0.14676 0.208844,0.10724 0.327378,0.30479 0.118533,0.19756 0.118533,0.51365 0,0.54751 -0.378178,0.84666 -0.372533,0.29916 -1.021643,0.29916 h -1.416755 v -4.03013 z m 0.1016,1.71591 q 0.519288,0 0.711199,-0.16369 0.191911,-0.16933 0.191911,-0.49671 0,-0.33302 -0.237066,-0.47413 -0.231422,-0.14676 -0.745066,-0.14676 h -0.666044 v 1.28129 z m -0.745066,0.42333 v 1.46191 h 0.812799 q 0.536222,0 0.745066,-0.20884 0.208845,-0.20885 0.208845,-0.54751 0,-0.31609 -0.220134,-0.508 -0.214488,-0.19756 -0.773288,-0.19756 z"
               style="font-family:sans-serif;-inkscape-font-specification:sans-serif;opacity:0.52552;fill:#000000;fill-opacity:1;filter:url(#filter55708)"
               id="path55703" /><path
               d="m 98.24329,176.78784 c 0,0.28975 -0.03364,0.7326 -0.03309,1.026 -0.0058,0.22487 -0.03286,0.39711 -0.07335,0.68483 -0.111863,0.24607 -0.24523,0.42007 -0.398507,0.53805 -0.24083,0.13547 -0.966368,0.11614 -1.346427,0.11614 -0.07526,0 -0.163689,-0.006 -0.265289,-0.0169 -0.09784,-0.008 -0.17874,-0.0207 -0.242711,-0.0395 l 0.0073,-0.39535 c 0.146756,0.0489 0.305051,0.0454 0.489436,0.0454 0.263407,0 0.490494,0.0146 0.669219,0.0109 0.168949,-0.004 0.347726,-0.0273 0.449326,-0.17408 0.138172,-0.0699 0.224527,-0.40595 0.211672,-0.7755 0.04515,-0.19944 0.02256,-0.46863 0.03009,-0.68688 h -0.03387 c -0.08279,0.12794 -0.2032,0.23895 -0.361245,0.33302 -0.154281,0.0903 -0.353718,0.13546 -0.59831,0.13546 -0.346193,0 -0.626533,-0.10536 -0.841022,-0.31608 -0.210725,-0.21449 -0.316088,-0.51553 -0.316088,-0.90311 0,-0.28223 0.05268,-0.52494 0.158044,-0.72814 0.109126,-0.2032 0.259644,-0.35936 0.451555,-0.46849 0.191911,-0.10912 0.417689,-0.16368 0.677333,-0.16368 0.255881,0 0.487303,0.0659 0.694266,0.19755 0.206963,0.12794 0.370651,0.32361 0.491066,0.58702 0.120415,0.25965 0.180622,0.59079 0.180622,0.99342 z m -1.365954,-1.36031 c -0.233303,0 -0.425214,0.0771 -0.575733,0.23143 -0.146755,0.15428 -0.220133,0.38946 -0.220133,0.70555 0,0.25965 0.06209,0.46473 0.186266,0.61525 0.127941,0.14675 0.323615,0.22013 0.587022,0.22013 0.180622,0 0.336785,-0.0358 0.468489,-0.10725 0.131703,-0.0752 0.233303,-0.16933 0.304799,-0.28222 0.07526,-0.11289 0.112889,-0.22954 0.112889,-0.34995 0,-0.16181 -0.03198,-0.32173 -0.09595,-0.47978 -0.06397,-0.15805 -0.159929,-0.28975 -0.287867,-0.39511 -0.127941,-0.10537 -0.287866,-0.15805 -0.479777,-0.15805 z"
               style="font-family:sans-serif;-inkscape-font-specification:sans-serif;opacity:0.52552;fill:#000000;fill-opacity:1;filter:url(#filter55712)"
               id="path55705" /></g><path
             style="fill:none;stroke:#ffbe2e;stroke-width:0.965;stroke-linecap:round;stroke-linejoin:round;stroke-dasharray:none;stroke-opacity:1;filter:url(#filter64157)"
             d="m 105.7031,174.90389 c 0,0 -0.0665,1.00868 -0.4553,1.32672 -1.03865,0.84954 -1.73916,0.82987 -2.22136,0.74146 -1.05605,-0.19362 -1.58449,-1.95097 -1.46822,-2.82639 0.11436,-0.86105 1.07872,-2.26341 2.09859,-2.88575 1.52107,-0.92819 2.98337,-0.94718 4.52422,-0.6852 1.66484,0.28306 2.90007,1.83434 3.05832,2.97529 0.15825,1.14096 -0.0734,2.53494 -1.00387,3.80919 -0.58936,0.80713 -2.53897,2.86084 -3.053,3.1113 -0.51403,0.25047 -2.71909,1.37971 -3.01298,1.23677 -0.29388,-0.14293 -0.36611,-0.4636 0.007,-0.66284 0.37274,-0.19924 4.3015,-0.92095 5.75765,-1.00857 1.45615,-0.0876 2.16237,0.0385 2.16237,0.0385"
             id="path55785" /><g
             aria-label="O"
             transform="matrix(0.95100003,0.28372958,-0.27863307,0.96839487,0,0)"
             id="text64163"
             style="font-weight:bold;font-size:20.4626px;line-height:1.25;-inkscape-font-specification:'sans-serif Bold';stroke-width:0.319728"><path
               d="m 157.17685,166.03625 c -0.36804,0.017 -11.92421,3.56089 -13.28455,3.84865 -0.4911,-1.13226 -0.81552,-2.72468 -0.81552,-4.23891 0,-1.51423 0.24555,-2.83066 0.73666,-3.94928 0.50474,-1.11862 1.26868,-1.98487 2.29181,-2.59875 1.03677,-0.62752 2.3532,-0.94128 3.94928,-0.94128 1.58244,0 2.88523,0.31376 3.90836,0.94128 1.02313,0.61388 1.78024,1.48695 2.27135,2.61921 0.50474,1.11863 0.94261,2.80485 0.94261,4.31908 z m -10.84651,-0.3698 c 0,1.52788 -0.15053,2.33582 0.43607,3.22253 0.11888,0.23652 6.17703,-1.77614 6.7306,-1.83217 0,-1.54151 -0.0457,-4.13917 -0.61864,-5.01224 -0.57295,-0.87307 -1.51423,-1.3096 -2.82384,-1.3096 -1.30961,0 -2.25771,0.43653 -2.8443,1.3096 -0.58659,0.87307 -0.87989,2.08037 -0.87989,3.62188 z"
               id="path64165"
               style="fill:#6056dd;fill-opacity:1;stroke:none" /></g><path
             style="fill:#6056dd;fill-opacity:1;stroke:none;stroke-width:0.264583px;stroke-linecap:butt;stroke-linejoin:miter;stroke-opacity:1"
             d="m 116.7899,190.66797 4.83249,-0.0667 c 0,0 0.81725,6.90419 0.72328,8.79962 -0.094,1.89543 -0.44181,3.42557 -1.088,4.33714 -0.33371,0.47077 -2.1926,1.08891 -3.81211,1.08891 -1.61952,0 -2.92331,-0.28702 -3.8734,-0.96587 -0.95009,-0.67904 -1.68583,-1.40697 -1.87484,-3.22581 -0.18901,-1.81884 0.26766,-2.66518 0.88224,-3.00614 0.61458,-0.34097 2.33829,-0.0817 2.95051,0.40215 0.61221,0.48388 1.2482,1.24142 0.93816,2.05803 -0.26756,0.70471 -1.06684,0.91863 -1.48142,0.7474 -0.41458,-0.17123 -0.9199,-0.64737 -0.9199,-0.64737 0,0 -0.41263,-0.26952 -0.48165,-0.0127 -0.069,0.25682 -0.10132,1.48206 0.11338,1.82882 0.21469,0.34675 0.94668,0.99371 1.97787,1.08574 1.03119,0.092 3.22574,-0.0489 3.59086,-0.17028 0.36513,-0.12103 0.97,-0.57506 1.19351,-2.03212 0.27436,-1.78858 0.0164,-3.53194 -0.56628,-4.56625 -0.58274,-1.03431 -2.13713,-3.05322 -2.42774,-3.54033 -0.29061,-0.4871 -0.67696,-2.11462 -0.67696,-2.11462 z"
             id="path65348" /></g><path
           style="fill:#2122b1;fill-opacity:1;stroke:none;stroke-width:0.264583px;stroke-linecap:butt;stroke-linejoin:miter;stroke-opacity:1"
           d="m 54.598964,171.54814 c 0,0 0.07188,2.00378 1.744326,1.98863 1.672447,-0.0152 3.922748,0.30817 5.031378,-1.10853 1.108628,-1.41671 2.438137,-3.35985 3.264455,-5.29495 0.740418,-1.73393 0.946247,-4.63747 1.077566,-5.55262 0.223091,-1.55469 -0.534672,-4.73506 -1.29268,-5.62036 -1.078098,-1.25914 -6.634316,1.24732 -8.333743,4.81286 -1.699426,3.56555 -1.491302,10.77497 -1.491302,10.77497 z"
           id="path38550" /><path
           style="fill:#2122b1;fill-opacity:1;stroke:none;stroke-width:0.264583px;stroke-linecap:butt;stroke-linejoin:miter;stroke-opacity:1"
           d="m 128.23385,140.2213 c 0,0 -1.40536,1.04053 -0.38425,2.46136 1.02111,1.42083 3.44944,2.49611 5.69037,3.29641 2.12523,0.75898 4.57128,0.90043 6.62569,0.83498 1.19631,-0.0381 4.05252,-1.14091 3.38614,-2.03916 -0.66637,-0.89824 -3.82518,-3.08798 -5.93136,-3.44361 -2.10618,-0.35564 -5.84255,-2.15874 -6.75121,-1.97148 -0.90867,0.18727 -2.63538,0.8615 -2.63538,0.8615 z"
           id="path38944" /></g><path
         style="fill:#f4e4ee;fill-opacity:1;stroke:#24208d;stroke-width:1.265;stroke-linecap:round;stroke-linejoin:round;stroke-dasharray:none;stroke-opacity:1"
         d="m 54.851754,147.44505 c 0,0 1.836955,1.25545 3.442042,2.66428 1.605089,1.40881 4.735443,3.73343 5.223634,5.54075 0.488191,1.80733 1.185315,5.0304 0.674248,7.7601 -0.511064,2.7297 -1.243515,5.53441 -2.610358,7.1365 -1.366843,1.60209 -6.325069,1.80233 -8.014132,1.77347 -1.68906,-0.0289 -3.947267,0.17699 -3.947267,0.17699 0,0 -2.560902,1.07237 -2.882143,-0.17999 -0.321241,-1.25236 0.155481,-1.38363 0.793537,-1.70889 0.638053,-0.32527 3.496524,-1.98634 3.245135,-2.43692 -0.31243,-0.55998 -5.879636,0.23852 -6.413133,-0.27107 -0.525626,-0.50208 -0.804963,-0.96318 -0.73425,-1.53379 0.106054,-0.85578 1.487992,-1.12096 1.487992,-1.12096 0,0 5.211055,-1.12715 5.237354,-1.82442 0.03503,-0.92874 -6.357354,-1.01421 -6.849796,-1.96781 -0.350051,-0.67786 -0.481238,-1.26264 0.237932,-2.27634 0.719172,-1.01369 6.671721,-0.73116 6.671721,-0.73116 0,0 -6.708183,-1.94868 -7.045377,-2.90909 -0.453982,-1.29305 0.284756,-1.95121 0.93402,-2.51644 0.649266,-0.56523 3.522324,0.48166 4.996818,0.66145 0.799468,0.0975 2.319857,0.46007 2.704803,-0.10318 0.432699,-0.63311 0.195797,-1.86392 -0.267531,-2.36113 -1.059081,-1.13652 -1.718161,-2.43237 -1.816917,-3.30771 -0.09876,-0.87535 0.166118,-1.48416 1.092565,-1.70308 0.926449,-0.21893 1.683081,-0.26073 2.371664,0.0904 0.688583,0.35113 1.467437,1.14804 1.467437,1.14804 z"
         id="path29133" /><path
         style="fill:#f4e4ee;fill-opacity:1;stroke:#24208d;stroke-width:1.07917;stroke-linecap:round;stroke-linejoin:round;stroke-dasharray:none;stroke-opacity:1"
         d="m 128.35671,139.04988 c 0.13421,1.27797 0.88336,2.80946 1.73001,3.58278 0.84663,0.7733 3.41939,2.31523 7.19721,2.65009 2.37437,0.21048 5.1914,-0.65214 6.29573,-2.26037 1.10434,-1.60822 2.35608,-6.03885 2.30265,-8.59189 -0.0534,-2.55305 0.25932,-4.51766 -1.95618,-4.78726 -0.12603,-0.0156 -0.76786,0.0671 -0.76786,0.0671 0,0 -0.55428,-0.49835 -0.91694,-0.5865 -0.3627,-0.0879 -1.21311,0.0661 -1.21311,0.0661 0,0 -0.52183,-0.54665 -1.27098,-0.65088 -0.43035,-0.0599 -1.23474,0.10494 -1.23474,0.10494 0,0 -0.31673,-0.4189 -0.93473,-0.50646 -0.30734,-0.0435 -0.67055,0.17249 -0.84568,0.13679 -0.17512,-0.0358 -0.27413,-0.0557 -0.27413,-0.0557 0,0 1.49235,-5.46536 0.84518,-6.35172 -1.67718,-2.29694 -3.8555,-1.21029 -4.31572,-0.47756 -0.46023,0.73273 -5.28462,11.52876 -4.64068,17.66052 z"
         id="path34035" /><g
         id="g29088"><path
           style="fill:#f4e4ee;fill-opacity:1;stroke:#2122b1;stroke-width:1.265;stroke-linecap:round;stroke-linejoin:round;stroke-dasharray:none;stroke-opacity:1"
           d="m 58.914532,141.55218 c 0,0 -0.392147,2.08258 0.310147,3.92206 0.702294,1.83948 2.030066,4.62698 2.602743,5.23348 0.572678,0.60651 1.44965,1.05554 2.735271,1.06398 1.285618,0.008 2.520516,-0.2098 2.520516,-0.2098 l -3.712038,-9.52713 -2.999044,-1.94156 z"
           id="path27283" /><path
           style="fill:#f4e4ee;fill-opacity:1;stroke:#2122b1;stroke-width:1.265;stroke-linecap:round;stroke-linejoin:round;stroke-dasharray:none;stroke-opacity:1"
           d="m 119.49926,137.17363 c 0,0 2.54993,-0.071 3.0052,-0.30877 0.45527,-0.23775 2.07442,-1.0602 2.71629,-2.13807 0.64187,-1.07788 1.6501,-3.76053 1.7482,-6.14662 0.0981,-2.38608 0.24863,-6.36991 0.24863,-6.36991 l 0.003,-1.69578 -9.40158,5.90645 z"
           id="path27285" /><path
           style="fill:#f4e4ee;fill-opacity:1;stroke:#2122b1;stroke-width:1.265;stroke-linecap:round;stroke-linejoin:round;stroke-dasharray:none;stroke-opacity:1"
           d="m 59.497324,138.17349 c 0,0 2.398271,2.52515 3.266456,3.91396 0.868183,1.38881 2.716485,5.02491 3.119213,6.81175 0.40273,1.78684 1.58532,6.32441 3.410071,8.16933 1.82475,1.84492 7.833294,5.01058 10.219293,5.59293 2.386002,0.58235 11.198806,1.19816 14.096506,0.93385 5.433665,-0.49563 10.130427,-3.1062 12.681457,-4.6814 2.55102,-1.5752 8.9584,-4.72748 11.12482,-8.62493 2.16642,-3.89745 3.83268,-7.61224 3.55122,-10.20833 -0.28145,-2.59609 -1.44546,-4.19603 -1.13102,-6.5651 0.31443,-2.36908 4.40151,-12.78548 4.40151,-12.78548 l -21.9828,-2.45858 -32.16504,10.40994 z"
           id="path20826" /><path
           style="opacity:0.457102;fill:#f7c0df;fill-opacity:1;stroke:#000000;stroke-width:0.565;stroke-linecap:round;stroke-linejoin:round;stroke-dasharray:none;stroke-opacity:1"
           d="m 87.099661,151.57527 c -0.786523,1.94416 1.344312,4.37035 4.22222,4.66457 1.575283,0.16105 3.884683,-0.59258 4.54876,-1.25066 1.084992,-1.07519 1.233048,-2.68683 1.105764,-3.50744 -0.137329,-0.88537 -0.287698,-1.04957 -2.104102,-0.40092 -1.433108,0.51177 -3.415465,0.87132 -4.281302,0.75118 -0.682963,-0.0948 -3.428736,-0.41148 -3.49134,-0.25673 z"
           id="path392" /><ellipse
           style="opacity:1;fill:#f7c0df;fill-opacity:1;stroke:none;stroke-width:1.065;stroke-linecap:round;stroke-linejoin:round;stroke-dasharray:none;stroke-opacity:1"
           id="path19369"
           cx="1.1899348"
           cy="179.11594"
           rx="4.679544"
           ry="3.5225601"
           transform="rotate(-36.079816)" /><ellipse
           style="opacity:1;fill:#f7c0df;fill-opacity:1;stroke:none;stroke-width:1.065;stroke-linecap:round;stroke-linejoin:round;stroke-dasharray:none;stroke-opacity:1"
           id="ellipse20820"
           cx="50.012409"
           cy="163.93674"
           rx="4.679544"
           ry="3.5225601"
           transform="rotate(-10.091037)" /><path
           style="fill:none;stroke:#000000;stroke-width:0.264583px;stroke-linecap:butt;stroke-linejoin:miter;stroke-opacity:1"
           d="m 89.589969,146.67135 c 0,0 1.260914,0.61098 2.017789,0.53343 0.756875,-0.0776 1.891384,-0.84836 1.891384,-0.84836"
           id="path394" /><path
           style="fill:#24208d;fill-opacity:1;stroke:none;stroke-width:0.264583px;stroke-linecap:butt;stroke-linejoin:miter;stroke-opacity:1"
           d="m 61.868885,139.21151 c 0,0 2.565379,3.0325 3.15454,4.81954 0.589161,1.78703 0.755208,5.6353 0.755208,5.6353 0,0 -2.493034,-6.13978 -3.776691,-6.88957 -1.283661,-0.7498 -3.371075,-1.16807 -3.371075,-1.16807 z"
           id="path18968" /><path
           style="fill:#24208d;fill-opacity:1;stroke:none;stroke-width:0.264583px;stroke-linecap:butt;stroke-linejoin:miter;stroke-opacity:1"
           d="m 120.95639,123.14884 -0.91665,3.34714 -0.90431,5.56687 0.81211,4.17552 2.39351,-8.48353 1.97975,-3.11283 2.82032,1.17803 0.87133,-5.50781 z"
           id="path18970" /><g
           id="g405"><path
             style="fill:none;stroke:#000000;stroke-width:1.465;stroke-linecap:round;stroke-linejoin:miter;stroke-dasharray:none;stroke-opacity:1"
             d="m 76.698773,143.96791 c 0,0 0.883606,-1.75884 2.036152,-2.28964 1.152549,-0.53081 2.222811,-0.70205 2.859141,-0.46593 0.604977,0.22449 1.541395,0.91122 1.541395,0.91122"
             id="path396" /><path
             style="fill:none;stroke:#000000;stroke-width:0.565;stroke-linecap:round;stroke-linejoin:miter;stroke-dasharray:none;stroke-opacity:1"
             d="m 75.282837,143.35056 c 0,0 0.249822,0.43141 0.620604,0.51484 0.370782,0.0834 0.397719,0.19034 0.397719,0.19034"
             id="path503" /><path
             style="fill:none;stroke:#000000;stroke-width:0.565;stroke-linecap:round;stroke-linejoin:miter;stroke-dasharray:none;stroke-opacity:1"
             d="m 74.374202,141.92053 c 0,0 0.85441,-1.9816 2.570496,-3.05812 1.249136,-0.78359 2.80118,-0.68075 3.562558,-0.54382 0.761381,0.13693 2.168656,1.28377 2.168656,1.28377"
             id="path398" /><path
             style="fill:none;stroke:#000000;stroke-width:0.565;stroke-linecap:round;stroke-linejoin:miter;stroke-dasharray:none;stroke-opacity:1"
             d="m 83.296641,144.77939 c 0,0 -1.262373,1.23508 -2.548263,1.26131 -2.55312,0.0521 -3.910495,-1.50084 -3.910495,-1.50084"
             id="path400" /></g><g
           id="g1123"
           transform="translate(21.574075,-6.2224171)"><path
             style="fill:none;stroke:#000000;stroke-width:1.465;stroke-linecap:round;stroke-linejoin:miter;stroke-dasharray:none;stroke-opacity:1"
             d="m 76.698773,143.96791 c 0,0 0.883606,-1.75884 2.036152,-2.28964 1.152549,-0.53081 2.222811,-0.70205 2.859141,-0.46593 0.604977,0.22449 1.541395,0.91122 1.541395,0.91122"
             id="path1115" /><path
             style="fill:none;stroke:#000000;stroke-width:0.565;stroke-linecap:round;stroke-linejoin:miter;stroke-dasharray:none;stroke-opacity:1"
             d="m 75.282837,143.35056 c 0,0 0.249822,0.43141 0.620604,0.51484 0.370782,0.0834 0.397719,0.19034 0.397719,0.19034"
             id="path1117" /><path
             style="fill:none;stroke:#000000;stroke-width:0.565;stroke-linecap:round;stroke-linejoin:miter;stroke-dasharray:none;stroke-opacity:1"
             d="m 74.374202,141.92053 c 0,0 0.85441,-1.9816 2.570496,-3.05812 1.249136,-0.78359 2.80118,-0.68075 3.562558,-0.54382 0.761381,0.13693 2.168656,1.28377 2.168656,1.28377"
             id="path1119" /><path
             style="fill:none;stroke:#000000;stroke-width:0.565;stroke-linecap:round;stroke-linejoin:miter;stroke-dasharray:none;stroke-opacity:1"
             d="m 83.296641,144.77939 c 0,0 -1.262373,1.23508 -2.548263,1.26131 -2.55312,0.0521 -3.910495,-1.50084 -3.910495,-1.50084"
             id="path1121" /></g><path
           style="fill:none;stroke:#000000;stroke-width:1.065;stroke-linecap:round;stroke-linejoin:round;stroke-dasharray:none;stroke-opacity:1"
           d="m 81.117865,125.90978 c 0,0 -1.02151,2.74304 -0.74484,3.50012 0.276672,0.75708 2.170112,1.8792 3.277997,2.2402 1.806901,0.58876 4.073781,0.49263 6.540676,-0.25396 1.051542,-0.38816 3.360034,-1.62268 4.890531,-3.41475 0.522271,-0.61153 0.964832,-1.64393 0.794168,-2.67889 -0.170664,-1.03496 -1.563978,-2.97206 -3.003558,-3.3008 -1.439582,-0.32874 -6.066446,0.36127 -6.799273,0.81955 -0.732824,0.45828 -3.503998,1.7056 -3.567043,2.62486 -0.06305,0.91926 -0.408697,3.14596 0.554069,3.58626 0.962763,0.4403 2.152783,1.32141 4.76781,1.15229 0.907939,-0.0587 2.690177,-0.76607 3.777027,-1.6329 0.690734,-0.55091 1.715827,-1.67429 1.752583,-2.59178 0.03675,-0.91749 -0.761469,-2.22602 -1.979566,-2.28088 -1.218094,-0.0549 -5.368451,0.90312 -5.887064,1.70947 -0.518612,0.80635 -1.001553,1.57721 0.01135,2.03685 1.012896,0.45964 1.7941,0.95856 3.28444,0.742 1.36778,-0.19875 1.972386,-1.17936 1.972386,-1.17936"
           id="path19250" /></g><g
         id="g12146"
         style="display:inline"><path
           style="fill:#f9ffff;fill-opacity:1;stroke:#24208d;stroke-width:1.765;stroke-linecap:round;stroke-linejoin:round;stroke-dasharray:none;stroke-opacity:1"
           d="m 59.08313,141.72008 c 0,0 10.961309,-10.10596 19.83577,-12.99263 8.874463,-2.88667 23.50612,-7.56811 28.24621,-7.95426 4.7401,-0.38615 10.73007,1.5382 13.12325,1.62964 2.39318,0.0915 7.52644,-0.2033 7.99661,-2.70602 0.47017,-2.50272 -0.1612,-8.91653 -4.49324,-15.10491 C 119.45969,98.403517 112.74642,91.739269 104.87654,89.152565 97.006668,86.565863 89.11234,87.672592 83.221504,88.296619 77.330667,88.92065 66.539395,95.465957 62.737793,98.821784 58.936191,102.17761 51.54042,113.97141 50.859271,116.83877 c -0.681151,2.86736 -0.877625,12.98054 0.427382,15.26295 1.305007,2.28242 3.962082,6.9914 4.740174,7.7195 0.778092,0.72809 3.056303,1.89886 3.056303,1.89886 z"
           id="path1248" /><path
           style="fill:#c4e4fc;fill-opacity:1;stroke:none;stroke-width:0.264583px;stroke-linecap:butt;stroke-linejoin:miter;stroke-opacity:1"
           d="m 62.956585,135.96064 c 0,0 -5.098709,-4.64556 -5.6657,-8.65201 -0.566995,-4.00645 0.03361,-11.29987 1.8161,-14.53203 1.78249,-3.23217 4.653928,-10.21866 7.99293,-14.084952 3.339002,-3.866287 2.279684,-2.784768 2.279684,-2.784768 0,0 -7.533034,6.76026 -9.099269,8.78869 -1.566233,2.02843 -5.094415,7.39011 -6.113823,10.76572 -1.019407,3.37561 -1.988227,8.73136 -1.722382,10.81519 0.265843,2.08383 1.870374,6.35111 3.43239,8.67772 1.562012,2.32662 3.192864,4.72645 3.192864,4.72645 z"
           id="path15538" /><path
           style="display:inline;fill:#c4e4fc;fill-opacity:1;stroke:none;stroke-width:0.265;stroke-linecap:butt;stroke-linejoin:miter;stroke-dasharray:none;stroke-opacity:1"
           d="m 112.03584,94.693151 c 0,0 1.71322,4.006504 2.6087,6.602679 0.89548,2.59618 1.90554,12.74468 2.08953,14.58496 0.18399,1.84028 0.0374,4.14645 0.0374,4.14645 0,0 4.14761,1.32395 5.38684,1.20281 1.23922,-0.12114 4.76887,-1.28417 4.76887,-1.28417 0,0 0.36518,-3.07245 -0.33309,-5.84757 -0.69827,-2.77511 -3.12464,-7.86168 -4.57443,-10.07865 -1.44978,-2.21697 -9.98384,-9.326509 -9.98384,-9.326509 z"
           id="path18108" /><g
           id="g16726"><ellipse
             style="opacity:1;fill:#8a8fe8;fill-opacity:1;stroke:none;stroke-width:1.765;stroke-linecap:round;stroke-linejoin:round;stroke-dasharray:none;stroke-opacity:1"
             id="path3579"
             cx="93.548454"
             cy="112.31867"
             rx="8.4298229"
             ry="8.1645222" /><ellipse
             style="opacity:1;fill:#ffffff;fill-opacity:1;stroke:none;stroke-width:1.765;stroke-linecap:round;stroke-linejoin:round;stroke-dasharray:none;stroke-opacity:1"
             id="path15512"
             cx="93.497597"
             cy="112.2893"
             rx="7.7167344"
             ry="7.2357526" /><text
             xml:space="preserve"
             style="font-size:11.2889px;line-height:1.25;font-family:sans-serif;fill:#8a8fe8;fill-opacity:1;stroke-width:0.264583"
             x="73.36808"
             y="144.60042"
             id="text12088"
             transform="matrix(1.0102515,-0.29275652,0.11617388,0.95618702,0,0)"><tspan
               id="tspan12140"
               x="73.36808"
               y="144.60042"
               style="font-size:11.2889px;fill:#8a8fe8;fill-opacity:1"></tspan></text></g><g
           id="g16720"><path
             style="fill:none;stroke:#8a8fe8;stroke-width:0.865;stroke-linecap:round;stroke-linejoin:round;stroke-dasharray:none;stroke-opacity:1"
             d="m 117.67941,116.82052 c 0,0 -1.22572,0.20196 -1.32407,-1.10105 -0.0736,-0.6944 0.19687,-1.23351 1.08904,-1.23476"
             id="path16714" /><path
             style="fill:none;stroke:#8a8fe8;stroke-width:0.865;stroke-linecap:round;stroke-linejoin:round;stroke-dasharray:none;stroke-opacity:1"
             d="m 120.6804,115.97769 c -0.66009,-0.0965 -2.02273,-0.30479 -3.11633,-0.3292"
             id="path16716" /><path
             style="fill:#8a8fe8;fill-opacity:1;stroke:#8a8fe8;stroke-width:0.565;stroke-linecap:round;stroke-linejoin:round;stroke-dasharray:none;stroke-opacity:1"
             d="m 116.93024,116.87138 -2.32126,-1.33666 1.93593,-0.97724 -0.31917,1.13251 z"
             id="path29057" /></g><g
           id="g29066"
           transform="rotate(129.2361,85.433742,109.85736)"><path
             style="fill:none;stroke:#8a8fe8;stroke-width:0.865;stroke-linecap:round;stroke-linejoin:round;stroke-dasharray:none;stroke-opacity:1"
             d="m 117.67941,116.82052 c 0,0 -1.22572,0.20196 -1.32407,-1.10105 -0.0736,-0.6944 0.19687,-1.23351 1.08904,-1.23476"
             id="path29060" /><path
             style="fill:none;stroke:#8a8fe8;stroke-width:0.865;stroke-linecap:round;stroke-linejoin:round;stroke-dasharray:none;stroke-opacity:1"
             d="m 120.6804,115.97769 c -0.66009,-0.0965 -2.02273,-0.30479 -3.11633,-0.3292"
             id="path29062" /><path
             style="fill:#8a8fe8;fill-opacity:1;stroke:#8a8fe8;stroke-width:0.565;stroke-linecap:round;stroke-linejoin:round;stroke-dasharray:none;stroke-opacity:1"
             d="m 116.93024,116.87138 -2.32126,-1.33666 1.93593,-0.97724 -0.31917,1.13251 z"
             id="path29064" /></g></g></g><g
       id="g86134"><path
         style="fill:#fbfbfd;fill-opacity:1;stroke:#152873;stroke-width:0.665;stroke-linecap:butt;stroke-linejoin:miter;stroke-dasharray:none;stroke-opacity:1"
         d="m 151.63458,117.19775 c 0,0 0.51823,-9.56115 1.30487,-10.74584 0.78664,-1.1847 2.36553,-2.15472 3.57165,-2.23724 1.20612,-0.0825 3.08892,0.37867 3.90939,1.35208 0.82048,0.9734 3.75992,13.20629 3.75992,13.20629 z"
         id="path79526" /><path
         style="fill:#fbfbfd;fill-opacity:1;stroke:#152873;stroke-width:0.264583px;stroke-linecap:butt;stroke-linejoin:miter;stroke-opacity:1"
         d="m 153.96895,116.50233 c 0,0 0.10889,-3.69203 0.47859,-4.3597 0.3697,-0.66768 1.52421,-1.13551 2.36283,-1.22522 1.59651,-0.17078 2.76914,0.71449 2.90682,1.23927 0.13767,0.52472 0.71463,4.22512 0.71463,4.22512 l -6.65063,0.0879 z"
         id="path79528" /><ellipse
         style="opacity:1;fill:#c7fefc;fill-opacity:1;stroke:#000000;stroke-width:0.465;stroke-linecap:round;stroke-linejoin:round;stroke-dasharray:none;stroke-opacity:1"
         id="path79586"
         cx="157.01601"
         cy="107.05413"
         rx="2.4758229"
         ry="1.7848929" /><ellipse
         style="opacity:1;fill:#1b2a63;fill-opacity:1;stroke:none;stroke-width:0.964999;stroke-linecap:round;stroke-linejoin:round;stroke-dasharray:none;stroke-opacity:1"
         id="path79588"
         cx="157.06358"
         cy="106.77159"
         rx="0.8136763"
         ry="0.67027539" /><ellipse
         style="opacity:0.979364;fill:#ebfefc;fill-opacity:1;stroke:none;stroke-width:0.964999;stroke-linecap:round;stroke-linejoin:round;stroke-dasharray:none;stroke-opacity:1"
         id="path79582"
         cx="157.06432"
         cy="105.25602"
         rx="0.89843625"
         ry="0.6914289" /></g><g
       id="g76725"><path
         style="fill:#f9ffff;fill-opacity:1;stroke:none;stroke-width:0.264583px;stroke-linecap:butt;stroke-linejoin:miter;stroke-opacity:1"
         d="m 124.57051,67.686263 c 0,0 2.39518,-3.470436 6.26608,-4.016531 3.8709,-0.546092 6.61167,0.361622 8.38407,1.333135 1.7724,0.971513 5.42735,4.751652 5.32889,7.712215 -0.0985,2.960561 -0.36073,8.866359 -3.68933,11.233137 -3.32859,2.366777 -6.29922,3.522284 -8.06137,3.385415 -5.30426,-0.411988 -7.98732,-2.011525 -8.8799,-3.762798 -1.88206,-3.69265 -1.44898,-5.425366 -1.44898,-7.473681 0,-2.048314 0.64356,-4.794935 0.84792,-6.02089 0.20436,-1.225954 1.25262,-2.390002 1.25262,-2.390002 z"
         id="path76719" /><path
         style="fill:#8ffefc;fill-opacity:1;stroke:none;stroke-width:0.264583px;stroke-linecap:butt;stroke-linejoin:miter;stroke-opacity:1"
         d="m 122.49475,77.033286 c 0,0 0.0626,3.066677 1.67925,4.82828 1.61664,1.761601 3.3073,3.305347 6.17518,3.305347 2.86788,0 4.28418,0.409725 7.86287,-1.585803 1.25095,-0.697549 3.5375,-3.420106 4.09302,-6.541985 0.87887,-4.939023 -0.20445,-8.097374 -1.42178,-9.693227 -1.21734,-1.595853 -1.39549,-2.610146 -4.51016,-3.06397 -3.11466,-0.453824 -6.02062,-1.050192 -8.4254,0.549743 -2.40477,1.599933 -4.68505,5.622478 -5.03499,7.393802 -0.34994,1.771322 -0.41799,4.807813 -0.41799,4.807813 z"
         id="path76721" /></g><g
       id="g79424"><path
         style="fill:#f9ffff;fill-opacity:1;stroke:none;stroke-width:0.264583px;stroke-linecap:butt;stroke-linejoin:miter;stroke-opacity:1"
         d="m 164.07035,117.70285 c 0,0 4.69842,2.77285 6.95132,8.15921 1.73548,4.1493 1.49341,10.70746 -0.24756,12.69803 -1.74096,1.99058 -4.93382,4.54452 -8.19363,5.33313 -3.25981,0.78861 -8.48728,0.67662 -11.87868,-0.77077 -2.00499,-0.85569 -6.73731,-4.54383 -7.0922,-8.14164 -0.35489,-3.59781 -0.87232,-8.38508 0.74732,-11.1869 1.61964,-2.80181 5.41649,-6.47911 8.38131,-7.42068 2.96482,-0.94157 4.63028,-1.45848 7.0078,-0.78618 2.37752,0.6723 4.32432,2.1158 4.32432,2.1158 z"
         id="path77831" /><path
         style="fill:#8ffefc;fill-opacity:1;stroke:none;stroke-width:0.264583px;stroke-linecap:butt;stroke-linejoin:miter;stroke-opacity:1"
         d="m 163.67812,117.94302 c 0,0 1.73129,1.46036 2.65635,4.67345 0.92507,3.2131 2.31484,12.04939 -0.15091,15.21227 -2.46574,3.16289 -3.7807,4.42812 -6.55567,5.3713 -2.77498,0.94319 -8.90134,-0.11683 -10.272,-0.92909 -1.37067,-0.81226 -6.00749,-6.19856 -6.23783,-9.68013 -0.23035,-3.48157 1.28056,-7.97719 3.26909,-10.54401 1.98854,-2.56683 5.68902,-5.72998 8.19038,-6.01955 2.50136,-0.28957 3.17085,-0.70665 4.80847,-0.20183 1.63761,0.50482 4.29212,2.11759 4.29212,2.11759 z"
         id="path77833" /></g><g
       id="g2027"><path
         style="fill:#f4ce7a;stroke:none;stroke-width:0.264583px;stroke-linecap:butt;stroke-linejoin:miter;stroke-opacity:1;fill-opacity:1"
         d="m 129.2719,73.365092 -0.0508,4.737942 4.18131,2.412383 0.001,-4.739574 z"
         id="path1118" /><path
         style="fill:#7cf2bf;stroke:none;stroke-width:0.264583px;stroke-linecap:butt;stroke-linejoin:miter;stroke-opacity:1;fill-opacity:1"
         d="m 129.54601,72.898899 4.08087,2.452159 4.21012,-2.370373 -4.14997,-2.406568 z"
         id="path1120" /><path
         style="fill:#ad61d8;stroke:none;stroke-width:0.264583px;stroke-linecap:butt;stroke-linejoin:miter;stroke-opacity:1;fill-opacity:1"
         d="m 133.86403,75.794512 4.16016,-2.398744 0.0571,4.762717 -4.15562,2.374961 z"
         id="path1122" /><path
         style="fill:none;stroke:#000000;stroke-width:0.264583px;stroke-linecap:butt;stroke-linejoin:miter;stroke-opacity:1"
         d="m 128.67687,72.838789 -0.0217,5.663861 4.98786,2.902032 5.02004,-2.930202 -0.0143,-5.734072 -4.98522,-2.855171 z"
         id="path1124" /></g><g
       id="g2037"
       transform="matrix(1.3544974,0,0,1.3544974,-23.114279,28.750547)"><path
         style="fill:#f4ce7a;fill-opacity:1;stroke:none;stroke-width:0.264583px;stroke-linecap:butt;stroke-linejoin:miter;stroke-opacity:1"
         d="m 129.2719,73.365092 -0.0508,4.737942 4.18131,2.412383 0.001,-4.739574 z"
         id="path2029" /><path
         style="fill:#7cf2bf;fill-opacity:1;stroke:none;stroke-width:0.264583px;stroke-linecap:butt;stroke-linejoin:miter;stroke-opacity:1"
         d="m 129.54601,72.898899 4.08087,2.452159 4.21012,-2.370373 -4.14997,-2.406568 z"
         id="path2031" /><path
         style="fill:#ad61d8;fill-opacity:1;stroke:none;stroke-width:0.264583px;stroke-linecap:butt;stroke-linejoin:miter;stroke-opacity:1"
         d="m 133.86403,75.794512 4.16016,-2.398744 0.0571,4.762717 -4.15562,2.374961 z"
         id="path2033" /><path
         style="fill:none;stroke:#000000;stroke-width:0.264583px;stroke-linecap:butt;stroke-linejoin:miter;stroke-opacity:1"
         d="m 128.67687,72.838789 -0.0217,5.663861 4.98786,2.902032 5.02004,-2.930202 -0.0143,-5.734072 -4.98522,-2.855171 z"
         id="path2035" /></g></g></svg>
